<svg width="180" height="173" viewBox="0 0 180 173" fill="none" xmlns="http://www.w3.org/2000/svg">
<path d="M73.8686 43.7608C73.8686 43.7608 71.2859 38.5918 64.4783 36.2234C57.6687 33.8532 52.9746 38.5922 43.817 38.8079C34.6603 39.0231 15.0519 38.1437 11.2957 27.1601C7.53994 16.1786 12.9746 10.6346 16.4972 9.77334C20.0178 8.91124 26.6782 15.3347 26.4436 18.1348C26.209 20.9332 27.3825 20.9332 28.7916 19.8568C30.1998 18.7813 29.2613 16.841 30.1998 15.7646C31.1387 14.6882 33.4868 14.4735 33.4868 14.4735C33.4868 14.4735 35.1305 13.181 31.6089 10.5982C28.0873 8.01327 27.1267 -2.323 12.3577 0.476706C-2.4113 3.27597 -3.89862 27.8211 7.66158 37.5167C12.4528 41.5363 26.6912 55.8085 26.6912 55.8085L9.30532 51.9439C9.30532 51.9439 11.6524 56.4651 18.9307 58.6179C26.2095 60.7725 29.7306 61.6333 29.7306 61.6333L25.0345 64.2178C25.0345 64.2178 27.8522 67.6631 31.3738 67.4488C34.8954 67.2331 38.8858 68.5252 42.4083 71.9705C45.9299 75.4175 56.7288 81.0156 56.2601 87.4754C55.7909 93.9378 56.0245 108.58 53.4419 115.901C50.8592 123.223 45.4607 141.741 44.2862 147.556C43.1117 153.371 42.6439 154.877 39.8257 157.894C37.0089 160.907 34.6608 162.848 36.7733 164.785C38.8858 166.721 50.3904 167.154 54.6164 166.507C58.8423 165.861 62.1293 164.138 62.5985 162.632C63.0682 161.125 61.4249 157.246 61.6596 154.664C61.8942 152.08 64.4768 144.974 67.059 140.237C69.6426 135.497 69.1734 133.345 71.0503 133.128C72.9296 132.915 73.632 139.59 75.7464 144.542C77.8589 149.496 80.6757 154.231 80.6757 155.526C80.6757 156.818 77.8589 160.907 75.7464 163.492C73.633 166.077 72.2248 168.876 74.5729 169.954C76.92 171.029 85.842 172.537 90.5371 171.46C95.2332 170.384 99.9284 168.66 101.102 166.937C102.276 165.214 99.9284 157.032 99.2236 155.309C98.5202 153.587 94.2929 131.622 94.2929 131.622C94.2929 131.622 89.5977 121.5 92.6496 120.424C95.702 119.347 114.954 123.871 118.476 126.454C121.997 129.037 121.763 139.804 121.763 144.327C121.763 148.849 121.764 151.434 119.181 154.879C116.597 158.324 114.25 160.477 116.362 161.553C118.476 162.631 131.859 161.767 136.319 160.691C140.779 159.616 139.371 156.169 139.136 152.94C138.902 149.709 140.31 137.007 140.545 136.143C140.779 135.281 157.684 142.387 158.388 146.694C159.092 151.002 153.928 155.093 152.519 157.463C151.11 159.83 151.579 161.987 155.806 162.631C160.033 163.277 176.702 163.923 179.049 158.97C181.397 154.016 175.292 140.88 174.823 139.157C174.354 137.435 157.92 120.209 157.215 114.393C156.51 108.579 158.153 94.3664 161.206 92.8583C164.258 91.3501 171.772 95.8736 173.884 99.9645C175.997 104.054 177.405 109.44 178.345 109.44C179.285 109.44 177.17 95.4432 166.606 85.1038C156.041 74.7702 151.581 69.6007 143.363 65.0772C135.147 60.5555 121.765 60.1252 112.138 61.8498C102.512 63.5727 103.686 60.9877 103.686 60.9877C103.686 60.9877 113.782 62.2802 112.607 54.5275C111.433 46.774 93.8241 40.7442 73.8686 43.7608Z" fill="#E13C6C"/>
<path d="M9.30518 51.9441C9.30518 51.9441 9.71165 56.3843 20.8147 59.1725C31.9187 61.9589 36.9358 63.2891 37.4929 62.6754C38.0514 62.0612 31.5726 57.0666 29.1323 56.4383C26.6911 55.8083 9.30518 51.9441 9.30518 51.9441Z" fill="white"/>
<path d="M26.1115 50.8373C28.6792 53.2668 31.4511 55.4865 34.3302 57.6012C36.8873 59.4804 39.5346 61.7266 42.4378 63.1325C44.0391 63.9082 46.0067 64.3674 47.5964 63.3056C48.9896 62.3749 49.6413 60.5316 48.9838 59.0575C47.8624 56.5377 42.5667 56.0192 41.9493 59.1833C41.3888 62.0614 46.0164 61.4171 44.5778 59.3073C44.4344 59.0965 44.0705 59.2896 44.2138 59.5021C43.3599 58.226 43.6046 57.4033 45.2498 57.3205C45.8914 57.2882 46.8863 57.4755 47.4052 57.8425C49.4101 59.2608 49.2343 61.9857 47.0794 63.1126C44.068 64.6858 40.671 61.6979 38.378 60.0976C34.1617 57.1531 30.0772 54.0727 26.2462 50.7107C26.1574 50.6336 26.0241 50.7541 26.1115 50.8373Z" fill="white"/>
<path d="M39.1869 63.8918C42.6231 67.8047 48.2992 69.389 53.5644 68.1076C53.7599 68.0589 53.6774 67.7817 53.4814 67.8286C48.2239 69.0905 42.8871 67.4917 39.2931 63.7949C39.227 63.728 39.128 63.8237 39.1869 63.8918Z" fill="white"/>
<path d="M24.8915 42.8843C21.8879 41.2681 19.0846 39.2025 16.6178 36.9519C14.0825 34.6366 12.279 31.9639 10.1361 29.3798C9.88505 29.0774 9.41389 29.3267 9.58092 29.677C12.3929 35.577 18.6931 40.2129 24.6227 43.3049C24.921 43.4616 25.187 43.0441 24.8915 42.8843Z" fill="white"/>
<path d="M16.107 37.1492C18.2981 38.8574 22.0539 39.6234 24.8731 39.4397C25.2134 39.418 25.2047 38.9933 24.8731 38.9601C23.2815 38.8029 21.7145 38.7135 20.1635 38.3185C18.8026 37.9723 17.5504 37.3697 16.205 36.9946C16.1118 36.9681 16.0283 37.0881 16.107 37.1492Z" fill="white"/>
<path d="M21.0257 40.9956C20.8862 42.3315 21.3762 43.7121 22.3441 44.7158C22.3923 44.7646 22.4469 44.8168 22.5188 44.8239C22.6936 44.842 22.7534 44.6167 22.7365 44.4568C22.6013 43.1679 21.926 41.9334 20.8813 41.0638" fill="white"/>
<path d="M24.3343 40.9204C25.6083 41.8635 27.3162 42.9005 29.056 42.4759C29.4306 42.386 29.5359 41.8582 29.169 41.6895C27.8062 41.0594 26.1596 41.0072 24.7654 40.4094C24.4294 40.2651 23.9955 40.6706 24.3343 40.9204Z" fill="white"/>
<path d="M24.4649 40.9948C24.9027 41.2955 25.6244 41.191 26.1409 41.1317C26.7453 41.0635 27.3613 40.9391 27.8807 40.6371C28.3862 40.3431 28.236 39.4628 27.5501 39.5208C26.9679 39.5691 26.4137 39.7294 25.8498 39.8635C25.3521 39.9813 24.7531 40.0101 24.3751 40.3506C24.1501 40.5521 24.2414 40.8399 24.4649 40.9948Z" fill="white"/>
<path d="M24.0496 44.5854C24.1456 45.2535 24.3011 45.9066 24.5922 46.5279C24.8147 47.0012 25.2183 47.8885 25.8922 47.8186C26.0443 47.804 26.205 47.7287 26.2407 47.5755C26.3691 47.0229 25.8039 46.6935 25.493 46.2666C25.0947 45.7198 24.8316 45.1526 24.7138 44.503C24.652 44.1625 23.9999 44.2382 24.0496 44.5854Z" fill="#602855"/>
<path d="M24.002 44.6821C24.2443 45.2241 24.5379 45.7138 24.9313 46.176C25.2982 46.6082 25.8528 47.2976 26.5171 47.2436C26.9322 47.2095 27.303 46.8765 27.1635 46.4639C26.9781 45.9153 26.3375 45.7222 25.8721 45.395C25.4304 45.0855 25.0293 44.7144 24.6735 44.3239C24.4249 44.052 23.8509 44.3443 24.002 44.6821Z" fill="white"/>
<path d="M46.5601 65.6126C49.1944 66.2644 52.0329 66.2011 54.6305 65.4364C54.9622 65.339 55.3044 65.2225 55.541 64.9865C55.7775 64.7505 55.8697 64.3653 55.6578 64.1098C55.5077 63.9301 55.2465 63.8601 55.0003 63.8327C53.9822 63.7228 53.0075 64.1802 52.0575 64.5349C50.5055 65.1127 48.8444 65.4457 47.1693 65.5104" fill="white"/>
<path d="M47.0071 65.9742C49.3107 65.465 51.4372 64.3957 52.5745 62.3886C53.0771 61.503 51.6815 60.745 51.1085 61.6035C50.0991 63.1174 48.6455 64.4976 46.6933 64.9302C45.9542 65.094 46.2675 66.138 47.0071 65.9742Z" fill="white"/>
<path d="M45.5581 38.5636C45.5581 38.5636 54.8166 42.8139 63.9134 43.5227C73.0111 44.2321 77.3954 43.5227 77.3954 43.5227C77.3954 43.5227 67.2008 34.1265 59.6817 35.5695C52.1615 37.0121 45.5581 38.5636 45.5581 38.5636Z" fill="white"/>
<path d="M45.3858 38.6046C44.8775 39.1506 43.451 39.9967 44.7853 40.5551C45.4954 40.8539 46.6168 40.8128 47.3728 40.8323C48.444 40.8597 49.5108 40.7804 50.5647 40.6073C50.751 40.5785 50.6685 40.327 50.4869 40.3501C49.2222 40.5135 47.9714 40.5967 46.6955 40.5192C46.0872 40.4816 44.2702 40.6126 44.8302 39.4145C44.9233 39.2139 45.3984 38.9557 45.5562 38.725C45.6224 38.6312 45.4674 38.5169 45.3858 38.6046Z" fill="white"/>
<path d="M50.5973 40.2454C50.6759 41.7181 50.9752 44.7365 52.8647 45.2643C54.9212 45.8386 57.5313 43.5348 58.701 42.2582C58.8217 42.1267 58.6146 41.9359 58.493 42.0692C57.5125 43.1327 56.1058 44.4204 54.5828 44.7724C53.694 44.9778 52.2434 44.5492 51.7607 43.7969C51.5603 43.4839 51.4372 43.1004 51.3141 42.7546C51.0235 41.9337 50.855 41.1043 50.7648 40.2449C50.7546 40.1488 50.5929 40.1453 50.5973 40.2454Z" fill="white"/>
<path d="M58.4276 42.2576C59.0339 43.559 60.4643 46.2914 62.3132 46.4207C64.1597 46.5522 65.9869 44.1492 66.6675 42.8514C66.7568 42.6823 66.5058 42.5437 66.39 42.7035C65.4404 44.0084 63.5611 46.8723 61.3603 45.6055C60.1467 44.9072 59.2488 43.307 58.5454 42.1943C58.5 42.1243 58.3948 42.1859 58.4276 42.2576Z" fill="white"/>
<path d="M66.541 43.0052C67.1768 44.4974 68.6221 45.7265 70.3189 46.1604C72.7452 46.7812 72.8524 44.8281 74.0916 43.4781C74.2663 43.2872 74.0042 43.0534 73.7961 43.2084C72.5236 44.1555 72.7249 46.3694 70.2272 45.7301C68.6602 45.3271 67.5398 44.1533 66.7235 42.9348C66.6665 42.8507 66.4985 42.9047 66.541 43.0052Z" fill="white"/>
<path d="M52.8698 45.0388C52.8698 45.0388 50.8959 48.543 52.1399 49.7456C52.1399 49.7456 55.3859 51.0106 55.3164 49.7456C55.2473 48.4805 53.4863 44.6102 53.1783 44.8245" fill="white"/>
<path d="M62.193 46.2454C62.193 46.2454 60.4223 49.39 61.5388 50.4695C61.5388 50.4695 64.4522 51.6052 64.3904 50.4695C64.3276 49.3338 62.7476 45.8619 62.4701 46.0523" fill="white"/>
<path d="M70.9231 46.3633C70.9231 46.3633 69.4777 49.6448 70.6996 50.6237C70.6996 50.6237 73.7138 51.5075 73.5371 50.3806C73.3604 49.256 71.4353 45.9329 71.1794 46.149" fill="white"/>
<g opacity="0.7">
<path d="M56.154 36.5882C55.8538 37.3347 56.0392 37.8103 56.7213 38.3177C57.359 38.7928 58.31 38.9305 59.0114 39.2989C60.3283 39.991 61.3189 40.9226 62.1265 42.0942C62.1825 42.1774 62.308 42.1774 62.365 42.0942C64.1526 39.5318 69.205 41.9591 70.0715 38.4966C70.1198 38.3057 69.8016 38.2238 69.7514 38.4155C69.0707 41.0177 66.0575 40.1167 64.1492 40.6343C63.6018 40.784 62.6831 41.5221 62.2347 41.4734C61.708 41.4158 60.4784 39.9073 60.029 39.6102C58.9988 38.9296 55.7481 38.2296 56.282 36.6205C56.3071 36.5439 56.1825 36.5151 56.154 36.5882Z" fill="#DACED2"/>
<path d="M57.401 36.1346C60.0402 39.6579 65.065 40.4872 68.9308 38.0997C69.0554 38.0222 68.9414 37.838 68.8111 37.9124C64.899 40.1547 60.353 39.4055 57.5391 36.0603C57.4783 35.9877 57.3412 36.0541 57.401 36.1346Z" fill="#DACED2"/>
<path d="M61.5514 35.569C60.8871 36.8655 61.3197 38.405 62.5019 39.3176C62.6395 39.4239 62.8408 39.2432 62.7013 39.1352C61.5726 38.2496 61.2265 36.8996 61.6788 35.619C61.7035 35.5504 61.5857 35.5026 61.5514 35.569Z" fill="#DACED2"/>
<path d="M62.7232 39.2509C64.1067 38.8657 65.1832 37.3385 64.4886 36.0399C64.4384 35.9473 64.2539 35.9876 64.2684 36.0948C64.3519 36.7266 64.4413 37.2819 64.1144 37.8814C63.8142 38.4309 63.2764 38.8245 62.6633 39.0503C62.531 39.099 62.5798 39.2912 62.7232 39.2509Z" fill="#DACED2"/>
<path d="M64.4607 36.11C64.9575 37.7833 67.0294 38.8672 68.7566 37.813C68.8701 37.7448 68.7996 37.5433 68.6582 37.5982C67.0159 38.2309 65.125 37.8063 64.5665 36.0843C64.5471 36.021 64.4419 36.0471 64.4607 36.11Z" fill="#DACED2"/>
<path d="M61.4633 35.6207C61.1442 36.0741 60.66 36.3995 60.0904 36.5386C59.557 36.6701 59.1307 36.4686 58.6185 36.4877C58.506 36.4921 58.4549 36.6108 58.5287 36.6874C58.913 37.0805 59.7641 36.9822 60.2565 36.8313C60.8734 36.6409 61.3561 36.2512 61.6212 35.7053C61.6685 35.6083 61.5285 35.5282 61.4633 35.6207Z" fill="#DACED2"/>
<path d="M62.3306 40.5339C62.6975 40.5339 62.6984 40.0096 62.3306 40.0096C61.9627 40.0096 61.9627 40.5339 62.3306 40.5339Z" fill="#DACED2"/>
<path d="M68.5112 39.5864C68.5619 39.5284 68.5986 39.4801 68.6251 39.4102C68.6642 39.3021 68.5788 39.1905 68.4692 39.1591C68.4151 39.1427 68.3673 39.1383 68.3104 39.141C67.7195 39.172 68.1993 39.9335 68.5112 39.5864Z" fill="#DACED2"/>
<path d="M57.4082 37.5948C57.7258 37.5948 57.7258 37.1432 57.4082 37.1432C57.091 37.1432 57.09 37.5948 57.4082 37.5948Z" fill="#DACED2"/>
<path d="M62.9945 36.9809C62.9897 36.9667 62.9858 36.9521 62.981 36.9384C62.911 36.7134 62.5533 36.7126 62.4833 36.9384C62.4785 36.9517 62.4746 36.9663 62.4698 36.9809C62.3447 37.3821 63.1191 37.3838 62.9945 36.9809Z" fill="#DACED2"/>
<path d="M60.5213 37.4364C60.5165 37.4223 60.5102 37.4085 60.5044 37.3944C60.475 37.3195 60.3683 37.3195 60.3388 37.3944C60.334 37.4085 60.3282 37.4223 60.322 37.4364C60.2621 37.5879 60.5821 37.5887 60.5213 37.4364Z" fill="#DACED2"/>
<path d="M59.4673 35.9119C59.684 35.9119 59.685 35.6037 59.4673 35.6037C59.2505 35.6033 59.2505 35.9119 59.4673 35.9119Z" fill="#DACED2"/>
<path d="M65.3948 38.4464C65.5478 38.4464 65.5478 38.2277 65.3948 38.2277C65.2408 38.2277 65.2408 38.4464 65.3948 38.4464Z" fill="#DACED2"/>
<path d="M66.2909 37.2467C66.2948 37.2277 66.2977 37.2091 66.3015 37.1901C66.329 37.0377 66.2084 36.9261 66.0413 36.9527C66.0206 36.9554 66.0003 36.9589 65.9805 36.9616C65.7874 36.9921 65.7449 37.2352 65.869 37.3486C65.9935 37.4632 66.2581 37.4234 66.2909 37.2467Z" fill="#DACED2"/>
<path d="M60.8767 41.8225C61.1142 40.5734 59.2242 39.7671 58.2283 39.3345C56.8192 38.7203 55.3121 38.6048 53.9474 39.3606C53.8581 39.4102 53.8412 39.5253 53.9151 39.5935C55.6814 41.2411 58.1815 42.3751 60.7454 42.2471C60.9003 42.2396 60.8974 42.0421 60.7454 42.0297C58.7014 41.8619 56.1936 41.4107 54.7425 39.9181C53.7654 38.9143 56.3674 39.0768 57.0524 39.2233C58.1564 39.4607 60.7178 40.5247 60.6947 41.8012C60.6923 41.8942 60.8578 41.9199 60.8767 41.8225Z" fill="#DACED2"/>
<path d="M63.4709 42.2902C63.5308 42.2902 63.5308 42.206 63.4709 42.206C63.412 42.2065 63.412 42.2902 63.4709 42.2902Z" fill="#DACED2"/>
<path d="M63.2855 42.4223C65.6818 43.1887 68.221 43.133 70.6212 42.4165C70.7496 42.3789 70.7641 42.2315 70.6574 42.1633C68.3711 40.7211 65.3714 40.6423 63.1797 42.3019C63.0687 42.3864 63.214 42.5573 63.3347 42.4856C64.4315 41.8303 65.5732 41.3463 66.9065 41.3264C67.1624 41.3207 70.3948 41.8232 70.068 42.2195C69.6156 42.7681 67.6905 42.6818 66.9533 42.6875C65.7228 42.695 64.5377 42.4785 63.3564 42.1872C63.1889 42.1451 63.1257 42.37 63.2855 42.4223Z" fill="#DACED2"/>
<path d="M52.2847 39.3163C52.6526 39.1724 53.0248 39.0347 53.3936 38.8899C53.7223 38.761 54.0815 38.6592 54.3619 38.4542C54.5039 38.3501 54.345 38.1682 54.1968 38.196C53.8498 38.2607 53.5278 38.459 53.2125 38.6074C52.8582 38.7739 52.5082 38.9461 52.1539 39.1126C52.0047 39.183 52.137 39.3738 52.2847 39.3163Z" fill="#DACED2"/>
<path d="M50.9367 39.1952C51.4537 38.8755 51.9717 38.5563 52.4907 38.2379C52.9628 37.9483 53.4836 37.7004 53.9186 37.3665C54.0745 37.247 53.8756 37.0614 53.7173 37.127C52.6741 37.5556 51.6811 38.3862 50.8561 39.1C50.802 39.1465 50.873 39.2346 50.9367 39.1952Z" fill="#DACED2"/>
<path d="M50.2022 39.1034C50.3258 38.9604 50.3731 38.793 50.4267 38.6181C50.4836 38.4344 50.5729 38.2484 50.5073 38.0602C50.4614 37.926 50.2543 37.8512 50.1414 37.9712C49.998 38.1231 49.9951 38.2958 49.9666 38.4893C49.9401 38.673 49.8976 38.8612 49.9526 39.0427C49.9791 39.134 50.1293 39.1857 50.2022 39.1034Z" fill="#DACED2"/>
<path d="M70.3182 41.5741C70.7233 41.6374 71.1138 41.7362 71.5024 41.862C71.8843 41.9881 72.2444 42.1989 72.6369 42.287C72.7783 42.3193 72.9212 42.1413 72.7908 42.0457C72.1609 41.5812 71.165 41.4572 70.3887 41.3364C70.2202 41.3094 70.1474 41.5471 70.3182 41.5741Z" fill="#DACED2"/>
<path d="M70.1263 40.3234C71.561 40.659 72.5506 41.3697 73.6701 42.203C73.827 42.3203 74.1253 42.1614 73.9781 41.9851C73.0913 40.9287 71.5813 40.3459 70.1886 40.1144C70.0418 40.09 69.9771 40.2888 70.1263 40.3234Z" fill="#DACED2"/>
<path d="M72.2134 39.7847C73.0591 40.4869 73.8069 41.403 74.7724 41.9703C74.95 42.0747 75.0963 41.8511 74.9824 41.7201C74.2737 40.9098 73.2122 40.3306 72.3712 39.6408C72.2655 39.5531 72.1072 39.6966 72.2134 39.7847Z" fill="#DACED2"/>
</g>
<path d="M146.476 68.7226C146.614 68.7226 146.614 68.5247 146.476 68.5247C146.337 68.5247 146.337 68.7226 146.476 68.7226Z" fill="white"/>
<path d="M109.334 99.9465C108.895 100.794 108.739 101.761 108.893 102.687C108.906 102.771 108.925 102.859 108.988 102.919C109.068 102.997 109.198 103.01 109.316 103.017C109.673 103.04 110.031 103.062 110.389 103.085C110.548 103.094 110.717 103.103 110.856 103.031C111.17 102.871 111.128 102.45 111.03 102.133C110.865 101.599 110.663 101.071 110.425 100.558C110.242 100.162 109.922 99.7083 109.454 99.7482" fill="white"/>
<path d="M130.97 100.619C130.531 101.465 130.376 102.434 130.529 103.36C130.542 103.441 130.562 103.529 130.623 103.591C130.704 103.668 130.834 103.68 130.951 103.688C131.309 103.711 131.668 103.733 132.025 103.756C132.184 103.765 132.353 103.774 132.492 103.702C132.806 103.542 132.764 103.123 132.667 102.804C132.501 102.27 132.299 101.742 132.061 101.229C131.878 100.833 131.558 100.38 131.091 100.421" fill="white"/>
<path d="M105.273 99.4185C104.835 100.265 104.679 101.233 104.832 102.16C104.846 102.243 104.865 102.331 104.927 102.39C105.008 102.47 105.137 102.482 105.255 102.49C105.613 102.513 105.97 102.535 106.328 102.558C106.487 102.567 106.656 102.575 106.795 102.504C107.109 102.343 107.067 101.922 106.97 101.606C106.804 101.069 106.602 100.544 106.364 100.03C106.181 99.6341 105.861 99.1811 105.394 99.2205" fill="white"/>
<path d="M125.777 100.421C125.338 101.269 125.182 102.236 125.336 103.162C125.349 103.245 125.368 103.333 125.431 103.394C125.511 103.472 125.641 103.484 125.759 103.492C126.117 103.515 126.474 103.537 126.832 103.56C126.991 103.569 127.16 103.578 127.3 103.506C127.613 103.346 127.571 102.924 127.474 102.608C127.308 102.073 127.106 101.546 126.869 101.033C126.685 100.637 126.365 100.183 125.898 100.223" fill="white"/>
<path d="M113.766 100.045C113.326 100.891 113.17 101.86 113.324 102.786C113.337 102.869 113.356 102.956 113.419 103.016C113.5 103.095 113.629 103.106 113.747 103.115C114.105 103.137 114.462 103.161 114.82 103.182C114.979 103.192 115.148 103.2 115.288 103.13C115.601 102.97 115.559 102.548 115.461 102.232C115.296 101.695 115.094 101.17 114.857 100.657C114.673 100.259 114.353 99.8069 113.885 99.8468" fill="white"/>
<path d="M135.752 100.63C135.314 101.478 135.157 102.445 135.312 103.371C135.325 103.455 135.344 103.543 135.406 103.602C135.487 103.681 135.617 103.694 135.734 103.701C136.092 103.725 136.45 103.746 136.808 103.769C136.966 103.779 137.136 103.787 137.275 103.715C137.589 103.555 137.547 103.134 137.449 102.817C137.283 102.281 137.081 101.756 136.845 101.242C136.661 100.846 136.341 100.393 135.873 100.433" fill="white"/>
<path d="M140.74 100.369C140.301 101.215 140.145 102.183 140.298 103.11C140.312 103.193 140.331 103.279 140.393 103.341C140.474 103.42 140.604 103.433 140.721 103.44C141.079 103.461 141.437 103.485 141.795 103.506C141.954 103.517 142.123 103.524 142.262 103.454C142.575 103.294 142.534 102.872 142.435 102.556C142.271 102.02 142.068 101.494 141.831 100.981C141.648 100.585 141.328 100.131 140.86 100.171" fill="white"/>
<path d="M119.766 100.467C119.326 101.312 119.171 102.281 119.324 103.208C119.338 103.291 119.357 103.377 119.419 103.438C119.5 103.518 119.63 103.53 119.747 103.537C120.105 103.559 120.463 103.582 120.82 103.604C120.98 103.614 121.149 103.622 121.288 103.552C121.602 103.392 121.56 102.97 121.463 102.653C121.296 102.117 121.094 101.592 120.857 101.078C120.673 100.682 120.354 100.229 119.886 100.269" fill="white"/>
<path d="M102.705 96.7888C103.121 97.6455 104.014 99.3321 105.208 99.4384C106.468 99.5499 106.856 98.0201 107.26 97.2462C107.343 97.0859 107.107 96.9561 106.998 97.1071C106.486 97.8182 106.217 99.6287 104.804 98.988C103.941 98.5975 103.264 97.4565 102.839 96.7166C102.791 96.6338 102.664 96.7077 102.705 96.7888Z" fill="white"/>
<path d="M106.945 97.4097C107.313 98.2917 108.334 99.9964 109.51 100.123C110.741 100.252 111.57 98.3059 111.725 97.4566C111.76 97.2618 111.466 97.1812 111.397 97.3734C111.08 98.2771 110.36 100.349 108.85 99.3734C108.104 98.893 107.595 98.0358 107.143 97.3322C107.083 97.241 106.9 97.3021 106.945 97.4097Z" fill="white"/>
<path d="M111.553 97.5003C111.897 98.7388 112.68 100.297 114.299 100.333C115.971 100.371 116.985 98.7728 117.437 97.5069C117.488 97.3648 117.251 97.2732 117.172 97.4047C116.537 98.485 115.927 100.038 114.296 99.944C112.777 99.8581 112.273 98.5258 111.73 97.4312C111.684 97.3365 111.526 97.4051 111.553 97.5003Z" fill="white"/>
<path d="M117.249 97.6335C117.967 98.9238 118.947 100.549 120.8 100.436C122.327 100.342 123.23 98.9255 123.675 97.7393C123.739 97.5702 123.455 97.4639 123.361 97.6189C122.742 98.643 122.168 100.062 120.625 100.076C119.057 100.092 118.1 98.6253 117.439 97.5308C117.369 97.4174 117.185 97.5179 117.249 97.6335Z" fill="white"/>
<path d="M123.516 97.808C123.714 98.9225 124.701 100.441 126.014 100.694C127.455 100.971 128.277 98.8056 128.438 97.8443C128.472 97.6424 128.194 97.5742 128.108 97.7611C127.691 98.679 127.205 100.865 125.543 100.072C124.631 99.6389 124.053 98.5891 123.675 97.7668C123.635 97.6787 123.498 97.7111 123.516 97.808Z" fill="white"/>
<path d="M128.578 97.8347C128.579 97.8329 128.58 97.8311 128.58 97.8289C128.624 97.6939 128.359 97.6797 128.396 97.8289C128.641 98.8066 129.876 100.702 131.12 100.799C131.615 100.839 131.935 100.527 132.179 100.177C132.696 99.4291 133.143 98.5453 133.398 97.6925C133.455 97.5053 133.144 97.372 133.045 97.5557C132.623 98.3474 131.994 100.88 130.491 100.039C130.043 99.7891 129.658 99.2454 129.36 98.8677C129.302 98.7942 128.561 97.8852 128.578 97.8347Z" fill="white"/>
<path d="M133.337 97.7905C133.808 98.696 134.419 99.6116 135.067 100.421C135.385 100.816 135.771 101.068 136.326 100.924C137.645 100.581 138.572 98.6008 138.573 97.4704C138.573 97.2848 138.297 97.2631 138.233 97.427C138.036 97.9437 137.902 98.4724 137.63 98.9661C137.492 99.2163 137.329 99.4611 137.148 99.6878C136.764 100.169 136.572 100.448 135.896 100.253C134.835 99.9473 134.206 98.4817 133.447 97.7134C133.39 97.6572 133.305 97.7289 133.337 97.7905Z" fill="white"/>
<path d="M138.098 97.6169C138.526 98.506 139.22 99.5178 139.927 100.244C140.276 100.602 140.675 100.774 141.189 100.576C141.837 100.328 142.292 99.5359 142.62 99.0174C143.122 98.2253 143.529 97.3614 143.71 96.4559C143.76 96.1969 143.381 96.1013 143.28 96.3479C142.857 97.3831 142.439 98.8735 141.509 99.6386C141.387 99.8906 141.163 99.9769 140.835 99.9017C140.405 100.083 140.116 99.9575 139.967 99.5235C139.767 99.2844 139.573 99.0431 139.373 98.8036C139.003 98.3648 138.637 97.9286 138.186 97.5567C138.137 97.5146 138.074 97.5647 138.098 97.6169Z" fill="white"/>
<path d="M103.686 60.9888C103.686 60.9888 94.9547 95.6471 103.686 96.9449C112.418 98.2431 142.838 100.35 145.136 95.1613C147.435 89.9702 147.501 67.6181 147.501 67.6181C147.501 67.6181 140.582 58.611 103.686 60.9888Z" fill="white"/>
<g opacity="0.8">
<path d="M105.984 61.1797C103.503 67.7479 102.355 74.7988 102.353 81.7407C102.353 84.7937 102.327 88.1433 103.165 91.1206C103.738 93.1583 105.088 94.4397 107.36 94.8683C110.63 95.482 114.238 95.3093 117.561 95.3974C121.662 95.505 125.765 95.5431 129.866 95.4944C133.358 95.455 137.347 95.7698 140.78 95.1256C143.277 94.6576 143.24 92.3768 143.585 90.4224C145.011 82.3367 145.652 74.1665 145.517 65.9768C145.513 65.678 145.008 65.678 145.013 65.9768C145.147 73.9775 144.618 81.9914 143.279 89.9021C143.143 90.7066 143.075 91.6657 142.823 92.4472C142.224 94.3007 141.181 94.7944 139.33 94.9091C137.285 95.037 135.229 95.0693 133.181 95.1181C128.923 95.219 124.661 95.2372 120.402 95.1486C116.23 95.0623 111.559 95.3217 107.467 94.5132C102.564 93.5431 102.934 87.8834 102.774 84.2442C102.429 76.3933 103.769 68.7429 106.175 61.228C106.21 61.1155 106.025 61.0721 105.984 61.1797Z" fill="#DACED2"/>
<path d="M102.973 94.8858C102.971 94.8557 102.97 94.8247 102.967 94.7959C102.958 94.5927 102.634 94.5927 102.624 94.7959C102.622 94.8247 102.621 94.8557 102.619 94.8858C102.609 95.093 102.983 95.0948 102.973 94.8858Z" fill="#DACED2"/>
<path d="M102.073 92.0527C102.058 92.0367 102.043 92.0204 102.03 92.0027C101.978 91.9469 101.854 91.9469 101.804 92.0027C101.789 92.0204 101.774 92.0367 101.759 92.0527C101.644 92.1842 101.709 92.3981 101.916 92.3981C102.122 92.3981 102.188 92.1842 102.073 92.0527Z" fill="#DACED2"/>
<path d="M101.338 89.0074C101.325 88.9118 101.315 88.8923 101.261 88.813C101.202 88.7249 101.067 88.7249 101.008 88.813C100.954 88.8927 100.945 88.9122 100.93 89.0074C100.881 89.3205 101.387 89.3245 101.338 89.0074Z" fill="#DACED2"/>
<path d="M101.147 86.3701C101.151 86.3103 101.146 86.2497 101.133 86.1899C101.102 85.9614 100.778 85.9614 100.744 86.1899C100.731 86.2497 100.726 86.3108 100.73 86.3701C100.728 86.6163 101.15 86.6163 101.147 86.3701Z" fill="#DACED2"/>
<path d="M101.109 83.5007C101.093 83.479 101.077 83.4573 101.06 83.4374C100.995 83.3551 100.883 83.3551 100.818 83.4374C100.802 83.4573 100.785 83.479 100.768 83.5007C100.678 83.6141 100.8 83.7726 100.939 83.7726C101.078 83.7726 101.2 83.6141 101.109 83.5007Z" fill="#DACED2"/>
<path d="M100.939 80.6692C100.972 80.6692 101.004 80.6674 101.036 80.6674C101.209 80.6639 101.21 80.4243 101.036 80.4208C101.004 80.4208 100.972 80.419 100.939 80.419C100.764 80.415 100.763 80.6727 100.939 80.6692Z" fill="#DACED2"/>
<path d="M101.368 77.1044C101.359 77.0778 101.348 77.0504 101.339 77.0211C101.304 76.9259 101.162 76.9259 101.126 77.0211C101.116 77.0499 101.107 77.0774 101.096 77.1044C101.021 77.3116 101.444 77.3134 101.368 77.1044Z" fill="#DACED2"/>
<path d="M101.72 74.1909C101.861 74.1909 101.862 73.9912 101.72 73.9912C101.581 73.9912 101.58 74.1909 101.72 74.1909Z" fill="#DACED2"/>
<path d="M102.014 70.5079C102.144 70.5079 102.144 70.3224 102.014 70.3224C101.885 70.3224 101.885 70.5079 102.014 70.5079Z" fill="#DACED2"/>
<path d="M103.091 67.6158C103.058 67.5294 103.018 67.4648 102.952 67.3944C102.893 67.3333 102.756 67.3802 102.767 67.4648C102.777 67.5582 102.8 67.6286 102.849 67.7096C102.921 67.8287 103.138 67.7491 103.091 67.6158Z" fill="#DACED2"/>
<path d="M104.164 63.8762C104.292 63.8762 104.292 63.6929 104.164 63.6929C104.035 63.6929 104.035 63.8762 104.164 63.8762Z" fill="#DACED2"/>
<path d="M105.044 96.0212C105.256 96.0212 105.256 95.7188 105.044 95.7188C104.831 95.7193 104.831 96.0212 105.044 96.0212Z" fill="#DACED2"/>
<path d="M108.446 96.2498C108.436 96.221 108.425 96.194 108.414 96.1665C108.332 95.9469 108.009 95.9469 107.925 96.1665C107.916 96.194 107.905 96.2206 107.895 96.2498C107.737 96.6691 108.605 96.6709 108.446 96.2498Z" fill="#DACED2"/>
<path d="M112.177 96.6342C112.37 96.6342 112.37 96.3593 112.177 96.3593C111.984 96.3593 111.983 96.6342 112.177 96.6342Z" fill="#DACED2"/>
<path d="M115.401 96.9857C115.583 96.9857 115.583 96.7266 115.401 96.7266C115.22 96.7266 115.22 96.9857 115.401 96.9857Z" fill="#DACED2"/>
<path d="M119.603 96.8743C119.754 96.8743 119.754 96.6604 119.603 96.6604C119.453 96.6604 119.453 96.8743 119.603 96.8743Z" fill="#DACED2"/>
<path d="M122.339 96.7945C122.377 96.7945 122.377 96.7417 122.339 96.7417C122.302 96.7413 122.302 96.7945 122.339 96.7945Z" fill="#DACED2"/>
<path d="M123.422 96.9189C123.411 96.8919 123.399 96.8649 123.388 96.8379C123.362 96.7733 123.272 96.7733 123.245 96.8379C123.233 96.8649 123.223 96.8919 123.212 96.9189C123.146 97.0792 123.488 97.081 123.422 96.9189Z" fill="#DACED2"/>
<path d="M126.052 97.0074C126.263 97.0074 126.264 96.705 126.052 96.705C125.841 96.705 125.841 97.0074 126.052 97.0074Z" fill="#DACED2"/>
<path d="M130.023 96.7363C129.992 96.7434 129.961 96.7487 129.931 96.7558C129.822 96.7775 129.821 96.936 129.931 96.9577C129.962 96.9648 129.992 96.9719 130.023 96.9772C130.243 97.0241 130.244 96.6889 130.023 96.7363Z" fill="#DACED2"/>
<path d="M133.385 96.9272C133.408 96.9126 133.432 96.8966 133.454 96.882C133.546 96.8205 133.546 96.7146 133.454 96.6531C133.432 96.6371 133.408 96.6225 133.385 96.6062C133.258 96.5229 133.081 96.6367 133.081 96.766C133.082 96.8984 133.258 97.0122 133.385 96.9272Z" fill="#DACED2"/>
<path d="M136.746 96.897C136.77 96.8846 136.795 96.8717 136.819 96.8575C136.966 96.7796 136.966 96.5764 136.819 96.4989C136.794 96.4847 136.77 96.4719 136.746 96.4595C136.565 96.3621 136.33 96.4865 136.33 96.6769C136.329 96.8704 136.565 96.9944 136.746 96.897Z" fill="#DACED2"/>
<path d="M140.124 96.5196C140.157 96.5231 140.19 96.5253 140.222 96.5289C140.515 96.5541 140.516 96.0843 140.222 96.1096C140.19 96.1131 140.157 96.1149 140.124 96.1189C139.844 96.1419 139.842 96.4948 140.124 96.5196Z" fill="#DACED2"/>
<path d="M143.581 95.3648C143.645 95.3449 143.678 95.3325 143.734 95.2984C143.978 95.147 143.651 94.845 143.485 95.0695C143.448 95.1218 143.433 95.1523 143.413 95.2099C143.382 95.3002 143.483 95.3936 143.581 95.3648Z" fill="#DACED2"/>
<path d="M144.912 92.4569C145.28 92.4569 145.28 91.9326 144.912 91.9326C144.545 91.9326 144.544 92.4569 144.912 92.4569Z" fill="#DACED2"/>
<path d="M145.905 89.7576C145.869 89.7301 145.834 89.7053 145.795 89.6818C145.833 89.7412 145.869 89.7992 145.906 89.8581C145.886 89.719 145.846 89.626 145.713 89.5468C145.607 89.4835 145.441 89.5233 145.383 89.626C145.376 89.6367 145.371 89.6477 145.364 89.6584C145.313 89.75 145.312 89.8922 145.409 89.9661C145.559 90.0812 145.82 90.1277 145.929 89.9373C145.961 89.8815 145.96 89.8009 145.905 89.7576Z" fill="#DACED2"/>
<path d="M146.121 86.2457C146.092 86.235 146.062 86.2262 146.033 86.2155C145.753 86.1142 145.75 86.626 146.033 86.525C146.062 86.5144 146.092 86.5051 146.121 86.4945C146.254 86.4476 146.254 86.293 146.121 86.2457Z" fill="#DACED2"/>
<path d="M145.83 82.9644C145.828 82.9927 145.827 83.0237 145.826 83.0542C145.819 83.2451 146.156 83.2451 146.149 83.0542C146.147 83.0237 146.146 82.9927 146.145 82.9644C146.139 82.7771 145.836 82.7771 145.83 82.9644Z" fill="#DACED2"/>
<path d="M145.889 79.2351C146.064 79.2351 146.064 78.9862 145.889 78.9862C145.716 78.9866 145.715 79.2351 145.889 79.2351Z" fill="#DACED2"/>
<path d="M146.084 75.895C146.23 75.895 146.23 75.6895 146.084 75.6895C145.94 75.6895 145.94 75.895 146.084 75.895Z" fill="#DACED2"/>
<path d="M145.987 72.5732C146.122 72.5732 146.122 72.3824 145.987 72.3824C145.853 72.3824 145.853 72.5732 145.987 72.5732Z" fill="#DACED2"/>
<path d="M146.378 70.4242C146.515 70.4242 146.515 70.2298 146.378 70.2298C146.242 70.2298 146.242 70.4242 146.378 70.4242Z" fill="#DACED2"/>
<path d="M123.969 82.4788C121.998 79.6459 118.376 78.5496 114.878 79.3018C114.756 79.3284 114.69 79.4745 114.758 79.5697C116.668 82.284 119.933 83.5171 123.377 82.806C123.625 82.7542 123.519 82.4084 123.272 82.4571C121.535 82.7954 119.775 82.7161 118.163 81.9762C117.414 81.6326 115.015 80.2755 115.604 79.525C115.899 79.1487 118.397 79.4993 118.657 79.5467C119.426 79.6866 120.169 79.9355 120.86 80.2755C122.037 80.8569 122.94 81.6756 123.773 82.617C123.862 82.7197 124.045 82.5886 123.969 82.4788Z" fill="#DACED2"/>
<path d="M123.749 82.4671C122.997 81.1082 122.447 79.6988 122.309 78.1686C122.266 77.6881 122.264 77.2055 122.298 76.7233C122.319 76.2606 122.387 75.8015 122.499 75.348C122.451 74.7237 122.753 74.5652 123.407 74.8729C124.982 74.9686 125.189 77.3011 125.199 78.4998C125.211 79.9561 124.697 81.3313 124.174 82.6845C124.106 82.8607 124.425 82.9891 124.509 82.8142C125.374 81.0196 125.887 79.0431 125.507 77.0833C125.344 76.2394 124.536 73.4578 123.068 73.7266C121.963 73.9263 121.922 75.6704 121.849 76.4355C121.642 78.6113 122.216 80.7641 123.509 82.5946C123.606 82.7336 123.83 82.6128 123.749 82.4671Z" fill="#DACED2"/>
<path d="M124.204 82.8816C125.352 83.0202 133.865 82.7107 132.252 80.5977C131.496 79.6077 129.595 79.4403 128.444 79.6276C126.673 79.9154 125.139 81.0605 124.152 82.3977C124.036 82.5562 124.298 82.7382 124.439 82.6013C125.238 81.8274 125.99 81.0334 127.039 80.5242C128.134 79.9933 130.957 79.4067 131.544 80.8678C132.019 81.2424 131.948 81.4687 131.331 81.5444C130.915 81.7193 130.49 81.8703 130.055 81.9996C129.515 82.1674 128.965 82.3042 128.407 82.4154C127.015 82.6925 125.622 82.7466 124.204 82.7249C124.091 82.7231 124.098 82.8688 124.204 82.8816Z" fill="#DACED2"/>
<path d="M126.9 78.5816C127.689 77.4025 128.73 76.2256 129.287 74.9367C129.34 74.8145 129.136 74.7099 129.046 74.8069C128.073 75.8674 127.436 77.2679 126.677 78.4612C126.594 78.5918 126.813 78.7092 126.9 78.5816Z" fill="#DACED2"/>
<path d="M127.051 76.1072C127.118 75.6679 127.323 75.1782 127.276 74.7354C127.259 74.5804 127.041 74.5499 126.98 74.6996C126.812 75.1167 126.874 75.6392 126.819 76.0779C126.804 76.1988 127.032 76.2276 127.051 76.1072Z" fill="#DACED2"/>
<path d="M129.109 78.2397C129.692 77.9944 130.344 77.7823 130.881 77.4617C131.03 77.3718 130.94 77.1252 130.754 77.1846C130.134 77.3807 129.542 77.73 128.96 78.0072C128.791 78.0887 128.94 78.3114 129.109 78.2397Z" fill="#DACED2"/>
<path d="M117.166 75.6616C118.138 76.6871 119.298 77.8715 120.668 78.4551C120.805 78.5126 120.977 78.3523 120.842 78.2461C120.258 77.7909 119.589 77.4287 118.997 76.9775C118.405 76.5219 117.849 76.0339 117.341 75.4995C117.236 75.3897 117.062 75.5518 117.166 75.6616Z" fill="#DACED2"/>
<path d="M119.149 75.056C119.494 75.6409 119.792 76.341 120.251 76.8559C120.346 76.9635 120.554 76.8484 120.504 76.7205C120.383 76.4149 120.166 76.1409 119.985 75.8624C119.784 75.5511 119.582 75.2416 119.38 74.9316C119.292 74.7948 119.067 74.9157 119.149 75.056Z" fill="#DACED2"/>
<path d="M115.024 77.9774C115.674 78.0943 116.323 78.2798 116.983 78.3409C117.174 78.3586 117.203 78.0872 117.027 78.042C116.403 77.8799 115.736 77.8383 115.098 77.7285C114.922 77.7002 114.847 77.9446 115.024 77.9774Z" fill="#DACED2"/>
<path d="M113.508 75.6837C116.362 75.4277 118.645 72.9995 117.5 70.3592C116.541 68.1471 113.208 67.3554 111.357 69.1513C109.523 70.9317 111.242 73.9984 113.951 73.0606C114.911 72.7277 115.757 71.7522 115.297 70.7803C114.884 69.9071 113.751 69.7849 113.118 70.5137C112.972 70.6811 113.233 70.9224 113.378 70.7515C114.75 72.1609 114.613 72.8663 112.969 72.8716C112.165 72.8375 111.558 72.5102 111.147 71.889C110.451 70.7564 111.22 69.4232 112.346 68.8555C113.622 68.2131 115.338 68.4234 116.377 69.3563C118.953 71.6694 116.714 75.2657 113.508 75.5588C113.423 75.5681 113.422 75.6921 113.508 75.6837Z" fill="#DACED2"/>
<path d="M131.964 76.1137C129.959 73.9432 133.368 70.1255 135.893 69.9745C137.689 69.8665 138.88 71.085 138.93 72.6724C138.948 73.2555 138.783 74.2009 138.246 74.5644C137.622 74.7176 136.999 74.869 136.375 75.02C135.278 74.8903 134.996 74.2762 135.526 73.175C135.808 73.2144 135.935 72.849 135.647 72.7733C134.952 72.5936 134.243 72.9429 134.218 73.6846C134.186 74.6167 135.384 75.2954 136.24 75.4681C138.723 75.9702 139.868 73.5513 139.253 71.6628C137.412 66.0183 128.019 72.7481 131.796 76.2669C131.905 76.3674 132.06 76.2182 131.964 76.1137Z" fill="#DACED2"/>
<path d="M111.799 78.3726C110.462 79.7943 107.941 81.0775 106.172 79.4671C105.344 78.7109 105.107 77.5016 105.766 76.5651C106.119 76.0666 106.708 75.6796 107.335 75.5339C107.551 75.5122 107.766 75.4887 107.983 75.4657C109.389 75.5016 109.422 76.0382 108.082 77.0788C107.986 76.8857 107.632 77.023 107.709 77.2227C108.204 78.5076 110.112 78.0201 110.099 76.7152C110.08 74.8649 107.403 74.7679 106.156 75.6136C104.626 76.6524 104.556 78.7764 106.024 79.8997C108.05 81.453 110.548 80.0202 111.946 78.5081C112.032 78.4138 111.886 78.2787 111.799 78.3726Z" fill="#DACED2"/>
<path d="M133.753 79.4561C134.465 81.5602 136.968 82.3501 139.13 81.5885C141.008 80.9266 141.716 78.8477 140.333 77.4056C139.368 76.3996 136.4 75.622 136.022 77.5477C135.712 79.1262 137.988 79.7457 138.791 78.4133C138.895 78.2407 138.628 78.0286 138.482 78.1942C138.261 78.5719 137.902 78.5829 137.402 78.2265C135.964 78.1742 136.124 77.6974 137.88 76.7936C138.488 76.7485 139.303 77.116 139.741 77.472C140.769 78.3093 140.895 79.6841 139.958 80.6038C138.232 82.2978 134.792 81.5456 133.996 79.3941C133.945 79.2542 133.705 79.3122 133.753 79.4561Z" fill="#DACED2"/>
<path d="M120.19 70.3895C119.615 67.9777 121.553 65.8139 124.274 65.8679C125.395 65.8896 126.67 66.1938 127.507 66.9173C128.774 68.0171 128.496 69.4734 127.961 70.8447C128.121 70.8447 128.28 70.8447 128.439 70.8447C127.381 67.1187 121.997 66.7158 120.351 70.2886C120.196 70.6251 120.705 70.827 120.859 70.4848C122.299 67.3056 127.016 67.6895 127.961 70.9652C128.027 71.1941 128.362 71.1688 128.439 70.9652C128.978 69.5669 129.342 68.1159 128.173 66.9009C127.224 65.9148 125.674 65.437 124.273 65.441C121.453 65.4503 118.88 67.8081 119.973 70.4449C120.024 70.5675 120.221 70.5228 120.19 70.3895Z" fill="#DACED2"/>
<path d="M124.484 85.2404C122.241 85.0836 120.109 86.4355 119.851 88.5652C119.597 90.6676 121.25 92.5755 123.546 92.7792C125.782 92.9749 127.725 91.4903 127.972 89.4508C128.24 87.2369 126.232 85.4277 123.88 85.4224C123.6 85.4224 123.603 85.8094 123.88 85.82C125.898 85.8975 127.701 87.2998 127.572 89.26C127.441 91.2777 125.348 92.7663 123.189 92.3453C121.265 91.9689 120.097 90.3505 120.273 88.5918C120.468 86.6391 122.45 85.4113 124.484 85.4671C124.646 85.4724 124.641 85.251 124.484 85.2404Z" fill="#DACED2"/>
<path d="M112.306 88.9101C114.026 89.1979 115.84 89.5026 117.593 89.3764C117.737 89.3671 117.732 89.1891 117.593 89.1749C115.85 88.9912 114.096 88.9934 112.355 88.7481C112.24 88.7321 112.189 88.8902 112.306 88.9101Z" fill="#DACED2"/>
<path d="M116.016 85.1402C116.647 85.5923 117.299 86.1396 118.076 86.3699C118.234 86.4163 118.303 86.2167 118.183 86.1378C117.542 85.7203 116.791 85.452 116.165 85.0034C116.06 84.9282 115.909 85.0627 116.016 85.1402Z" fill="#DACED2"/>
<path d="M129.166 89.1131C131.106 89.0608 133.121 89.1272 135.044 88.8824C135.23 88.8589 135.172 88.6034 135.002 88.5946C133.079 88.5007 131.089 88.7296 129.166 88.8284C128.967 88.8376 128.965 89.1201 129.166 89.1131Z" fill="#DACED2"/>
<path d="M128.689 86.2197C129.138 86.0266 129.572 85.8092 130.003 85.5838C130.382 85.3863 130.821 85.2075 131.127 84.9179C131.233 84.8187 131.128 84.6407 130.977 84.6823C130.554 84.7957 130.179 85.0658 129.81 85.2819C129.39 85.525 128.978 85.7751 128.581 86.0505C128.472 86.1258 128.562 86.2737 128.689 86.2197Z" fill="#DACED2"/>
<path d="M129.561 90.9144C129.901 91.1575 130.245 91.3935 130.599 91.6202C130.944 91.8415 131.299 92.1276 131.707 92.2361C131.908 92.2883 132.017 92.0647 131.898 91.9354C131.642 91.6543 131.239 91.4851 130.901 91.2965C130.524 91.0844 130.139 90.8843 129.748 90.6916C129.601 90.6195 129.417 90.8121 129.561 90.9144Z" fill="#DACED2"/>
<path d="M118.682 91.0856C118.352 91.3504 118.005 91.5878 117.634 91.8038C117.322 91.9854 116.979 92.1262 116.69 92.3383C116.547 92.441 116.701 92.677 116.868 92.619C117.611 92.3635 118.292 91.7441 118.882 91.269C119.019 91.1591 118.819 90.9776 118.682 91.0856Z" fill="#DACED2"/>
<path d="M135.938 89.919C136.365 90.9848 137.184 91.7929 138.319 92.2645C138.953 92.5275 140.81 93.0659 141.295 92.2968C141.803 91.494 140.214 90.3888 139.597 90.0829C138.588 89.5825 137.301 89.4169 136.234 89.8491C136.042 89.9266 136.185 90.1821 136.37 90.1462C137.261 89.9731 138.073 89.9049 138.948 90.2002C139.43 90.364 139.882 90.6124 140.256 90.9361C140.445 91.0982 140.611 91.2762 140.756 91.4745C140.99 91.6689 140.94 91.8451 140.607 91.9983C140.194 92.4376 139.839 92.3278 139.229 92.1927C138.779 92.0918 138.347 91.9279 137.95 91.7101C137.145 91.2731 136.508 90.6231 136.068 89.869C136.031 89.8057 135.911 89.8491 135.938 89.919Z" fill="#DACED2"/>
<path d="M136.125 87.6853C137.211 88.2308 138.321 88.1086 139.446 87.7016C140.193 87.4338 141.928 86.8444 141.499 85.7826C141.176 84.9834 139.926 85.1149 139.227 85.2429C137.911 85.4842 136.779 86.1643 135.944 87.1181C135.778 87.3089 136.071 87.5825 136.24 87.3899C137.06 86.4521 138.628 85.3739 140.045 85.5325C140.128 85.5342 140.213 85.5342 140.297 85.5342C140.851 86.2776 140.825 86.7474 140.215 86.9436C139.919 87.1778 139.272 87.3629 138.945 87.4661C138.061 87.7433 137.145 87.8097 136.266 87.4639C136.106 87.4014 135.963 87.6047 136.125 87.6853Z" fill="#DACED2"/>
<path d="M134.698 85.5967C135.357 85.3429 135.97 85.0153 136.476 84.5433C136.803 84.2395 137.167 83.6143 136.596 83.3323C136.068 83.0675 135.464 83.5643 135.139 83.8955C134.694 84.3524 134.307 84.9772 134.264 85.5967C134.25 85.7999 134.566 85.8158 134.631 85.6436C134.77 85.2743 134.869 84.9179 135.096 84.5818C135.279 84.3099 135.698 83.7396 136.078 83.6838C136.186 83.6134 136.27 83.6515 136.332 83.7972C136.5 83.853 136.54 83.9305 136.449 84.0279C136.419 84.1359 136.304 84.2347 136.226 84.3157C136.086 84.4614 135.926 84.5929 135.763 84.7168C135.412 84.9852 135.013 85.2079 134.594 85.3757C134.458 85.4288 134.558 85.6502 134.698 85.5967Z" fill="#DACED2"/>
<path d="M134.046 91.1488C134.189 91.6275 133.982 92.1894 134.33 92.6171C134.564 92.9049 135.048 93.0222 135.363 92.7632C135.746 92.4497 135.441 91.9529 135.186 91.6633C134.943 91.3897 134.389 90.8911 133.963 91.0067C133.882 91.0284 133.814 91.1324 133.875 91.2046C134.04 91.4003 134.337 91.4512 134.554 91.5987C134.731 91.7209 135.351 92.2522 135.111 92.4882C134.812 92.7831 134.502 92.2394 134.45 92.0454C134.367 91.7284 134.378 91.4047 134.248 91.0966C134.2 90.9845 134.01 91.0257 134.046 91.1488Z" fill="#DACED2"/>
<path d="M112.681 85.7743C111.672 84.9746 110.504 84.4495 109.167 84.318C108.437 84.2462 106.959 84.1812 106.707 85.0596C106.472 85.8788 107.607 86.2441 108.251 86.4261C109.757 86.8489 111.314 86.8219 112.825 86.4384C113.056 86.3787 112.958 86.055 112.727 86.109C111.849 86.314 110.951 86.4114 110.046 86.3521C109.606 86.3233 109.167 86.2547 108.74 86.1559C108.079 86.0027 107.644 85.9904 107.489 85.3262C107.325 84.6262 107.764 84.6837 108.41 84.6638C108.895 84.6496 109.388 84.6926 109.861 84.786C110.839 84.9821 111.712 85.382 112.499 85.9403C112.625 86.0315 112.808 85.8752 112.681 85.7743Z" fill="#DACED2"/>
<path d="M113.184 90.5656C111.224 90.4036 109.372 91.0876 108.291 92.6391C108.224 92.7348 108.283 92.8986 108.413 92.9163C109.819 93.12 111.311 93.0602 112.615 92.4842C113.452 92.1136 114.219 91.3254 113.644 90.4646C113.547 90.3207 113.255 90.4142 113.33 90.5869C114.25 92.7197 109.749 92.7755 108.522 92.5519C108.563 92.6458 108.605 92.7374 108.646 92.8295C109.689 91.4972 111.365 90.6422 113.184 90.7719C113.328 90.7817 113.326 90.5784 113.184 90.5656Z" fill="#DACED2"/>
<path d="M109.777 88.3535C108.874 88.0457 107.917 88.2131 107.194 88.7905C107.106 88.8609 107.121 89.03 107.233 89.0765C108.001 89.3812 109.394 89.719 110.124 89.1469C110.359 88.9632 110.424 88.6935 110.285 88.4411C110.081 88.0723 109.595 88.0218 109.194 88.0506C108.962 88.0665 108.958 88.3707 109.194 88.3813C109.338 88.3871 109.482 88.3977 109.624 88.4119C109.678 88.5881 109.731 88.7666 109.784 88.9428C109.672 89.0885 109.162 89.0601 108.983 89.0615C108.44 89.069 107.928 88.9609 107.434 88.7608C107.446 88.856 107.46 88.9516 107.474 89.0468C108.1 88.55 108.905 88.3951 109.697 88.6165C109.884 88.6683 109.954 88.4146 109.777 88.3535Z" fill="#DACED2"/>
<path d="M114.469 84.5948C114.37 84.1232 113.629 80.6943 112.446 81.9974C112.025 82.4619 112.274 83.2288 112.544 83.7022C112.857 84.253 113.38 84.7445 114.046 84.9083C114.206 84.9464 114.287 84.7502 114.156 84.6692C113.747 84.4155 113.348 84.1724 113.063 83.7942C112.829 83.4808 112.524 82.9463 112.634 82.5593C112.61 82.2963 112.802 82.1741 113.21 82.1887C113.301 82.2892 113.375 82.3995 113.429 82.5199C113.56 82.7537 113.659 83.011 113.755 83.2558C113.936 83.715 114.088 84.1866 114.198 84.6634C114.235 84.8268 114.504 84.7569 114.469 84.5948Z" fill="#DACED2"/>
<path d="M110.664 73.9121C109.104 73.4977 107.736 73.039 106.641 71.878C105.925 71.1182 106.895 70.9636 107.567 71.1633C108.014 71.2966 108.435 71.5415 108.785 71.8222C109.467 72.369 109.93 73.1001 110.355 73.824C110.484 74.0432 110.848 73.8493 110.72 73.6279C110.09 72.5262 109.318 71.4082 108.028 70.8831C107.499 70.667 106.102 70.2871 105.758 70.98C105.414 71.6748 106.685 72.5785 107.171 72.9314C108.125 73.6221 109.391 74.1752 110.629 74.1499C110.776 74.1459 110.808 73.9498 110.664 73.9121Z" fill="#DACED2"/>
<path d="M140.033 74.9534C141.185 74.055 142.595 73.567 144.108 73.571C144.033 73.5046 143.959 73.4355 143.885 73.3673C143.958 74.9047 140.798 74.7497 139.77 74.6904C139.509 74.674 139.445 75.0685 139.707 75.1132C141.016 75.3346 144.503 75.2212 144.33 73.3673C144.319 73.2615 144.236 73.1601 144.108 73.1641C142.484 73.2057 141.031 73.7583 139.884 74.8143C139.785 74.9042 139.93 75.034 140.033 74.9534Z" fill="#DACED2"/>
<path d="M115.763 63.606C117.426 62.7886 115.52 61.246 114.162 61.6352C111.945 62.2688 112.155 64.7957 113.502 66.0736C115.163 67.6499 118.056 67.6897 119.63 65.9943C121.055 64.4605 120.73 62.0053 118.759 61.0028C118.561 60.9037 118.419 61.1538 118.587 61.2725C120.992 62.9754 120.297 66.4114 117.139 66.8507C115.733 67.0468 114.22 66.4871 113.405 65.3948C112.963 64.8041 112.687 64.0319 112.9 63.3102C113.067 63.0348 113.235 62.7576 113.402 62.4822C114.19 61.6542 114.94 61.973 115.654 63.4364C115.544 63.5086 115.64 63.6649 115.763 63.606Z" fill="#DACED2"/>
<path d="M132.413 62.045C130.694 62.8748 130.17 64.8748 131.195 66.3772C132.118 67.7312 134.725 68.8665 136.354 67.8911C138.054 66.8758 137.069 64.4245 135.325 64.0083C133.934 63.6771 132.44 65.3623 134.067 65.9614C134.228 66.0208 134.362 65.7958 134.236 65.6949C134.582 64.305 135.206 64.0278 136.11 64.8651C136.252 65.0325 136.395 65.1998 136.538 65.3654C137.104 66.3068 136.733 67.4877 135.58 67.7773C134.543 68.0385 133.271 67.6152 132.451 67.0591C130.68 65.8565 130.435 63.283 132.517 62.2062C132.63 62.1477 132.528 61.9892 132.413 62.045Z" fill="#DACED2"/>
<path d="M124.964 63.7143C124.916 63.4332 124.801 63.1688 124.756 62.8863C124.73 62.7243 124.628 61.9609 124.885 61.898C125.041 61.9862 125.197 62.0729 125.354 62.1593C125.359 62.2368 125.354 62.3125 125.337 62.3882C125.319 62.514 125.287 62.6361 125.243 62.757C125.139 63.0523 124.976 63.3207 124.835 63.5992C124.734 63.7989 125.039 63.9738 125.163 63.7754C125.443 63.3309 125.722 62.8035 125.744 62.2815C125.76 61.8909 125.528 61.4335 125.031 61.4641C123.932 61.5363 124.325 63.3362 124.834 63.7825C124.894 63.8365 124.976 63.7807 124.964 63.7143Z" fill="#DACED2"/>
<path d="M124.862 63.7322C124.677 63.3168 124.35 63.0122 123.887 62.8484C123.479 62.7045 122.866 62.6469 122.611 63.0538C121.968 64.0886 124.465 64.1267 124.961 64.078C125.214 64.0545 125.217 63.6874 124.961 63.7127C124.588 63.749 124.214 63.7543 123.842 63.7043C123.703 63.6843 123.566 63.6591 123.43 63.6246C123.158 63.5581 123.055 63.5869 123.202 63.2991C123.338 63.0361 123.396 63.0724 123.666 63.1424C123.814 63.18 123.956 63.2376 124.088 63.308C124.326 63.4319 124.543 63.6175 124.72 63.8083C124.773 63.865 124.894 63.8043 124.862 63.7322Z" fill="#DACED2"/>
<path d="M124.911 63.9332C125.46 64.1621 126.023 64.4592 126.641 64.252C127.091 64.101 127.42 63.7229 127.37 63.2748C127.361 63.1938 127.315 63.1273 127.227 63.1017C126.505 62.906 125.454 63.091 125.081 63.7623C124.984 63.9354 125.209 64.0877 125.366 63.9655C125.903 63.5515 126.387 63.2637 127.124 63.4453C127.077 63.3895 127.029 63.3319 126.982 63.2743C127.122 64.2803 125.589 63.9908 125.021 63.7605C124.894 63.7083 124.782 63.8796 124.911 63.9332Z" fill="#DACED2"/>
<path d="M140.029 68.9768C139.673 68.0178 138.913 66.3777 140.262 65.7334C140.811 65.4726 141.245 65.9947 141.165 66.4463C141.117 66.7071 140.878 67.0277 140.738 67.2721C140.438 67.7924 140.045 68.2639 139.752 68.7842C139.665 68.9392 139.881 69.1096 140.022 68.975C140.627 68.4008 142.967 65.1109 140.625 65.2132C139.875 65.2473 139.332 65.8397 139.15 66.4676C138.89 67.3695 139.34 68.2909 139.852 69.0454C139.908 69.1282 140.066 69.076 140.029 68.9768Z" fill="#DACED2"/>
<path d="M139.827 69.1387C140.54 69.5739 141.249 69.8728 142.114 69.9344C142.716 69.9778 143.592 69.9503 143.813 69.3096C144.311 67.859 140.841 68.2102 140.165 68.4045C139.951 68.4657 139.976 68.7933 140.22 68.7769C140.69 68.7481 141.153 68.6693 141.624 68.6565C141.905 68.6512 142.191 68.6547 142.473 68.6782C143.007 68.7198 143.155 68.6264 142.83 69.175C142.558 69.6359 142.602 69.6054 142.114 69.5801C141.852 69.566 141.594 69.5261 141.34 69.4686C140.851 69.3605 140.375 69.1949 139.951 68.9465C139.818 68.8664 139.699 69.0594 139.827 69.1387Z" fill="#DACED2"/>
<path d="M110.298 66.768C109.262 66.4187 108.099 66.5178 107.198 67.128C106.674 67.4827 106.19 68.1831 107.082 68.4098C108.123 68.6746 109.966 68.3124 110.847 67.7598C111.579 67.3011 110.854 66.9916 110.364 66.7374C110.226 66.6653 110.063 66.8415 110.189 66.9429C110.18 66.9354 110.471 67.1081 110.479 67.1187C110.812 67.5256 110.389 67.6629 110.044 67.7576C109.348 67.952 108.629 68.0729 107.9 68.0888C107.584 68.0981 106.845 68.2185 107.24 67.538C107.372 67.3113 107.924 67.1045 108.186 67.016C108.857 66.7875 109.553 66.7963 110.229 67C110.389 67.0487 110.453 66.822 110.298 66.768Z" fill="#DACED2"/>
<path d="M111.018 66.6803C111.15 65.8359 110.885 61.6419 108.912 62.8985C108.164 63.3754 108.289 64.3943 108.582 65.0655C108.964 65.9405 109.747 66.59 110.727 66.8583C110.949 66.9194 111.025 66.6223 110.82 66.5488C110.2 66.3217 109.644 65.9675 109.265 65.4543C109.004 65.1032 108.355 63.789 108.91 63.4401C109.327 63.4578 109.745 63.4759 110.162 63.4923C110.282 63.6792 110.375 63.8771 110.443 64.0861C110.539 64.3362 110.618 64.5939 110.682 64.853C110.829 65.4485 110.873 66.0551 110.898 66.6653C110.9 66.7251 111.007 66.745 111.018 66.6803Z" fill="#DACED2"/>
</g>
<g opacity="0.43">
<path d="M80.6037 67.0717C81.1285 68.9907 82.3329 70.7835 84.1084 71.9029C85.8845 73.0222 88.2484 73.4021 90.2653 72.7056C92.6834 71.8723 94.218 69.7518 95.8482 67.9143C98.7418 64.655 102.402 61.9691 106.505 60.0934C107.305 59.7281 108.157 59.3859 109.05 59.404C109.944 59.4222 110.887 59.8991 111.12 60.6908C111.357 61.4953 110.825 62.3056 110.317 62.9968C108.62 65.3063 106.924 67.6154 105.226 69.9245C102.984 72.9775 100.706 76.0677 97.6817 78.487C94.6578 80.9082 90.75 82.62 86.7442 82.384C84.1842 82.233 81.5852 81.1942 80.148 79.2451C77.8772 76.1633 79.0812 72.0286 80.3619 68.4992" fill="#0D0D19"/>
</g>
<path d="M76.7211 43.2757C76.6887 46.856 76.7925 50.4705 77.0416 54.045C77.0508 54.1819 77.2782 54.185 77.2772 54.045C77.2714 50.4629 77.1184 46.8485 76.8307 43.2757C76.8258 43.211 76.7211 43.2093 76.7211 43.2757Z" fill="white"/>
<path d="M77.1829 54.0645C77.0868 54.0552 76.9917 54.0552 76.8942 54.045C76.6205 54.0193 76.6036 54.3851 76.8334 54.4604C77.0824 54.5436 77.3465 54.4404 77.4739 54.2314C77.5386 54.1274 77.4976 54.0012 77.3895 53.9365C77.1775 53.8104 76.898 53.8285 76.7291 54.0083C76.5741 54.1739 76.7817 54.4798 77.0028 54.3324C77.0588 54.2961 77.0882 54.2744 77.151 54.3107C77.1225 54.2115 77.095 54.1128 77.0665 54.0136C77.0351 54.0676 77.0173 54.0712 76.9555 54.053C76.9555 54.1885 76.9555 54.3249 76.9555 54.4599C77.0467 54.4329 77.138 54.413 77.2292 54.3842C77.4271 54.3222 77.3803 54.0844 77.1829 54.0645Z" fill="white"/>
<path d="M76.7994 54.3143C76.5107 55.3003 76.3167 56.4507 76.6893 57.439C76.7386 57.5669 76.9631 57.5545 76.9582 57.4071C76.923 56.363 76.7796 55.4106 77.0161 54.3705C77.0456 54.2403 76.8366 54.1845 76.7994 54.3143Z" fill="white"/>
<path d="M77.0761 54.175C76.9366 55.2208 76.7855 56.3911 77.2147 57.4024C77.2557 57.4981 77.4266 57.4941 77.4237 57.3754C77.402 56.3025 77.1312 55.2585 77.2214 54.175C77.2282 54.0886 77.0872 54.0922 77.0761 54.175Z" fill="white"/>
<path d="M77.2598 54.4296C77.4254 55.3316 77.352 56.237 77.4611 57.1368C77.4756 57.2625 77.6967 57.3187 77.7252 57.1691C77.8966 56.2547 77.6388 55.2793 77.3796 54.399C77.3578 54.3273 77.2468 54.3579 77.2598 54.4296Z" fill="white"/>
<path d="M77.2989 54.3984C77.9554 55.4332 77.9868 56.4914 78.0809 57.6453C78.0935 57.8091 78.3672 57.8667 78.4097 57.6869C78.6911 56.506 78.1538 55.2822 77.5108 54.2846C77.4302 54.1589 77.2193 54.2718 77.2989 54.3984Z" fill="white"/>
<path d="M33.9197 41.803C34.1707 41.803 34.1707 41.4448 33.9197 41.4448C33.6687 41.4452 33.6687 41.803 33.9197 41.803Z" fill="white"/>
<path d="M36.3124 41.57C36.3153 41.6098 36.3192 41.651 36.323 41.6909C36.2849 41.7374 36.2468 41.7825 36.2091 41.8277C36.2149 41.8241 36.2207 41.8224 36.226 41.8184C36.3626 41.7484 36.3703 41.5846 36.2733 41.4854C36.2685 41.4801 36.2646 41.4748 36.2598 41.4712C36.2038 41.4137 36.0976 41.3885 36.0184 41.4119C35.9074 41.4478 35.8171 41.5217 35.7959 41.6315C35.7017 42.1261 36.5538 41.9787 36.3124 41.57Z" fill="white"/>
<path d="M38.2255 41.9104C38.252 41.8687 38.2772 41.8258 38.3023 41.7824C38.3583 41.6872 38.2463 41.5845 38.1405 41.6349C38.0932 41.6566 38.0474 41.6801 38.002 41.7049C37.765 41.8271 38.0908 42.1278 38.2255 41.9104Z" fill="white"/>
<path d="M8.99745 27.7641C8.95015 27.7814 8.90428 27.7982 8.85891 27.8181C8.76188 27.8606 8.76188 28.0108 8.85891 28.0528C8.90428 28.0728 8.95015 28.0896 8.99745 28.1069C9.30737 28.2171 9.3093 27.6534 8.99745 27.7641Z" fill="white"/>
<path d="M8.12284 25.962C8.33187 25.962 8.33187 25.6658 8.12284 25.6658C7.91478 25.6658 7.91478 25.962 8.12284 25.962Z" fill="white"/>
<path d="M7.94166 23.7982C7.94456 23.7623 7.94842 23.7273 7.95325 23.6924C7.97883 23.4834 7.57333 23.4834 7.59988 23.6924C7.60471 23.7273 7.60905 23.7623 7.6105 23.7982C7.62932 23.993 7.9238 23.993 7.94166 23.7982Z" fill="white"/>
<path d="M2.73729 22.4605C4.71556 21.7468 6.58039 21.4767 8.69094 21.7972C8.84783 21.8216 8.91879 21.6068 8.75756 21.575C6.72473 21.1592 4.49736 21.3806 2.68033 22.337C2.61081 22.3737 2.65763 22.4889 2.73729 22.4605Z" fill="white"/>
<path d="M6.68948 20.4058C7.3378 20.4058 7.33876 19.4804 6.68948 19.4804C6.04019 19.4804 6.03922 20.4058 6.68948 20.4058Z" fill="#1A1830"/>
<path d="M74.5669 43.372C74.6466 51.0667 74.8966 58.7525 74.887 66.4493C74.887 66.6074 75.1539 66.6074 75.1549 66.4493C75.2215 58.7666 75.1978 51.0414 74.6606 43.372C74.6562 43.318 74.5659 43.3162 74.5669 43.372Z" fill="white"/>
<path d="M74.7201 66.7957C74.8489 66.7798 74.9745 66.7616 75.1038 66.767C75.2453 66.774 75.3023 66.6315 75.252 66.531C75.0015 66.0306 73.9549 66.511 74.4304 66.9126C74.8369 67.2549 75.4992 66.6965 75.0367 66.3419C74.8591 66.2051 74.5685 66.1869 74.3952 66.3401C74.1881 66.5217 74.2528 66.8227 74.4546 66.9808C74.9484 67.3713 75.5369 66.6191 75.0541 66.2733C74.8374 66.1165 74.5496 66.3614 74.7452 66.558C74.806 66.6191 74.7283 66.7001 74.6988 66.6607C74.7654 66.7488 74.7205 66.5039 74.7539 66.6138C74.7461 66.6678 74.7394 66.7218 74.7312 66.7754C74.8016 66.6656 74.9117 66.7054 75.017 66.747C75.0305 66.6496 75.0445 66.554 75.058 66.4592C74.9354 66.5026 74.8094 66.5203 74.6819 66.5434C74.5299 66.5708 74.5622 66.8139 74.7201 66.7957Z" fill="white"/>
<path d="M74.2009 66.748C73.9755 68.1162 73.9262 69.5021 74.1763 70.872C74.2009 71.0013 74.4461 70.9726 74.4317 70.8397C74.2767 69.4751 74.2125 68.1379 74.3607 66.7683C74.3699 66.6851 74.2149 66.6652 74.2009 66.748Z" fill="white"/>
<path d="M74.6642 66.9929C74.418 68.2548 74.3572 69.6354 74.7704 70.8739C74.8076 70.9837 75.0195 70.9713 75.0026 70.8451C74.8269 69.5442 74.6623 68.3252 74.8018 67.0097C74.8095 66.9389 74.6782 66.9212 74.6642 66.9929Z" fill="white"/>
<path d="M75.0287 66.6082C75.1716 67.863 75.1904 69.1426 75.4193 70.3882C75.441 70.5015 75.6442 70.4745 75.6384 70.3607C75.5757 69.1063 75.2986 67.8555 75.1509 66.6077C75.1422 66.5382 75.0205 66.5364 75.0287 66.6082Z" fill="white"/>
<path d="M75.3518 66.8678C75.8317 68.1063 75.962 69.3589 76.2802 70.6279C76.3067 70.7306 76.4814 70.7072 76.4814 70.6022C76.4757 69.3314 75.9567 68.012 75.4875 66.8333C75.4571 66.7562 75.3224 66.7886 75.3518 66.8678Z" fill="white"/>
<path d="M73.6387 139.575C80.399 136.037 87.4648 134.132 95.3012 134.617C95.5749 134.632 95.5734 134.242 95.3012 134.226C87.7564 133.767 79.7762 135.378 73.5189 139.388C73.3963 139.465 73.5045 139.645 73.6387 139.575Z" fill="white"/>
<path d="M77.6173 148.071C84.0865 146.474 90.4268 145.421 97.0838 144.73C97.3218 144.705 97.3349 144.368 97.0838 144.377C90.5369 144.634 83.7293 145.859 77.5343 147.79C77.3421 147.851 77.4189 148.119 77.6173 148.071Z" fill="white"/>
<path d="M45.9683 136.857C51.4305 139.982 58.0412 142.356 64.3492 143.512C64.5485 143.547 64.6325 143.283 64.4336 143.229C57.9958 141.521 52.0987 139.395 46.0842 136.675C45.9524 136.616 45.8418 136.785 45.9683 136.857Z" fill="white"/>
<path d="M47.437 125.908C54.5382 129.189 61.9989 131.878 69.5891 134.045C69.829 134.113 69.9304 133.77 69.6929 133.7C62.1196 131.458 54.7863 128.766 47.5529 125.728C47.4202 125.671 47.3033 125.846 47.437 125.908Z" fill="white"/>
<path d="M97.4815 121.212C104.875 114.041 115.761 112.685 126.037 113.571C128.547 113.788 131.421 114.177 133.268 115.923C135.192 117.745 135.194 120.76 133.51 122.718C131.758 124.757 128.749 125.011 126.366 123.693C125.26 123.083 124.319 122.054 123.968 120.905C123.671 119.93 123.749 118.895 124.348 118.045C125.23 116.793 128.087 115.971 128.718 118.303C128.788 118.56 129.222 118.451 129.151 118.193C128.801 116.908 127.509 116.125 126.041 116.324C124.244 116.571 123.337 118.288 123.358 119.818C123.409 123.386 127.954 125.821 131.471 124.615C135.163 123.352 136.318 118.576 133.776 115.901C132.117 114.156 129.521 113.579 127.116 113.309C123.529 112.904 119.816 112.859 116.216 113.146C109.187 113.709 101.986 115.99 97.3005 121.046C97.1962 121.159 97.3667 121.321 97.4815 121.212Z" fill="white"/>
<path d="M95.9047 118.571C99.9008 116.629 103.16 113.809 105.515 110.266C105.595 110.146 105.462 109.991 105.314 110.029C101.02 111.125 97.5634 113.852 95.7468 117.586C95.6445 117.795 95.9829 117.979 96.0853 117.767C96.9156 116.042 98.0819 114.487 99.6175 113.221C100.372 112.601 101.2 112.051 102.081 111.59C102.43 111.407 104.526 110.268 104.882 110.528C105.233 110.786 101.583 114.411 101.11 114.823C99.506 116.223 97.7073 117.384 95.7637 118.349C95.6044 118.427 95.7459 118.649 95.9047 118.571Z" fill="white"/>
<path d="M94.2978 117.678C95.0726 114.009 93.3922 110.288 90.2872 107.948C90.1762 107.864 89.9725 107.878 89.9387 108.033C89.1735 111.483 90.7197 114.903 93.9203 116.845C94.1491 116.982 94.362 116.645 94.1351 116.509C92.5725 115.561 91.3748 114.257 90.7062 112.648C90.3958 111.902 89.5641 108.48 90.6999 108.767C91.9773 109.088 93.2522 111.928 93.62 112.937C94.1853 114.487 94.2423 116.038 94.0647 117.648C94.0521 117.769 94.2717 117.797 94.2978 117.678Z" fill="white"/>
<path d="M151.901 70.7451C144.531 78.5177 158.216 92.649 167.397 85.7749C167.652 85.584 167.291 85.2674 167.038 85.4472C158.12 91.7847 145.565 78.5442 152.059 70.889C152.144 70.7885 151.997 70.6446 151.901 70.7451Z" fill="white"/>
<path d="M55.8547 86.6973C57.8909 93.4417 53.2947 101.731 58.3577 107.753C62.7202 112.943 70.1685 109.849 75.3053 107.349C86.7385 101.783 96.0805 90.8156 97.7692 78.8658C97.8015 78.6408 97.3888 78.5922 97.3366 78.8135C94.6903 90.0257 88.0197 99.7784 77.2131 105.866C71.6466 109.001 62.2163 113.354 57.8924 106.478C54.1473 100.522 57.9768 93.0499 56.0251 86.6543C55.9942 86.5534 55.8243 86.5963 55.8547 86.6973Z" fill="white"/>
<path d="M107.922 112.938C109.823 112.004 111.916 111.561 113.929 110.911C114.93 110.589 114.53 109.286 113.493 109.461C111.244 109.839 109.262 110.975 107.384 112.094C106.809 112.436 107.314 113.236 107.922 112.938Z" fill="white"/>
<path d="M97.5443 111.306C97.8836 110.216 97.3019 109.082 97.0036 108.022C96.6333 106.706 96.3442 105.387 96.0989 104.048C95.8605 102.743 93.7987 103.164 93.7118 104.345C93.7012 104.498 93.6891 104.651 93.6775 104.804C93.6012 105.843 95.1537 106.078 95.6978 105.304C95.7905 105.173 95.8841 105.039 95.9773 104.907C95.2363 104.818 94.4958 104.73 93.7552 104.64C94.0357 106.049 94.4185 107.455 94.9312 108.809C95.3222 109.835 95.6732 111.019 96.727 111.609C97.0374 111.784 97.4472 111.617 97.5443 111.306Z" fill="white"/>
<path d="M97.8062 110.622C97.9641 109.745 98.0934 108.865 98.3464 108.005C98.6047 107.133 99.0459 106.338 99.3621 105.487C99.7435 104.461 98.1127 103.919 97.5175 104.774C96.4333 106.333 95.9935 108.604 96.2199 110.426C96.3131 111.173 97.644 111.522 97.8062 110.622Z" fill="white"/>
<path d="M119.11 116.141C119.542 117.164 119.614 118.413 120.367 119.309C120.964 120.02 122.144 119.624 121.961 118.691C121.74 117.57 120.785 116.69 120.242 115.703C119.931 115.138 118.855 115.537 119.11 116.141Z" fill="white"/>
<path d="M116.142 116.619C116.207 116.8 116.272 116.984 116.336 117.165C116.427 117.417 116.551 117.586 116.772 117.761C116.956 117.907 117.193 117.969 117.426 117.875C117.631 117.792 117.809 117.592 117.793 117.373C117.774 117.108 117.744 116.905 117.578 116.685C117.456 116.525 117.333 116.364 117.212 116.206C117.045 115.987 116.761 115.873 116.481 115.987C116.227 116.089 116.05 116.359 116.142 116.619Z" fill="white"/>
<path d="M129.77 112.935C132.358 112.856 135.572 113.061 137.94 111.954C138.614 111.639 138.296 110.626 137.556 110.651C136.365 110.689 135.209 111.087 134.042 111.305C132.629 111.568 131.213 111.813 129.77 111.874C129.029 111.904 129.022 112.958 129.77 112.935Z" fill="white"/>
<path d="M134.361 114.329C135.049 114.404 135.832 114.84 136.518 114.6C137.152 114.377 137.342 113.598 136.711 113.245C136.041 112.868 135.108 113.158 134.361 113.117C134.006 113.099 133.701 113.41 133.701 113.723C133.701 114.082 134.006 114.287 134.361 114.329Z" fill="white"/>
<path d="M78.9374 151.316C85.0267 150.486 91.0938 149.1 97.1087 147.896C98.1988 147.676 97.7358 146.157 96.6487 146.364C90.6255 147.507 84.4715 148.503 78.5473 150.018C77.6137 150.258 78.0269 151.441 78.9374 151.316Z" fill="white"/>
<path d="M45.032 142.678C47.8685 143.727 50.8818 144.453 53.8087 145.268C56.6964 146.071 59.6909 147.149 62.6728 147.566C63.3056 147.654 63.855 146.82 63.1545 146.519C60.4985 145.376 57.5031 144.762 54.6984 143.979C51.6233 143.119 48.5246 142.133 45.3762 141.532C44.5444 141.371 44.2692 142.395 45.032 142.678Z" fill="white"/>
<path d="M43.942 146.478C46.1549 148.084 50.0313 148.19 52.7376 148.7C55.9551 149.304 59.4598 150.307 62.7429 150.309C63.5877 150.31 63.62 149.308 62.9292 149.049C59.8247 147.882 56.0511 147.585 52.754 147.011C50.1515 146.557 46.6724 145.346 44.0685 146.039C43.8812 146.088 43.7654 146.348 43.942 146.478Z" fill="white"/>
<path d="M38.2338 162.516C38.6233 163.088 39.0385 163.652 39.4063 164.237C39.5584 164.478 39.9803 164.235 39.8046 164.025C39.3561 163.485 38.9473 162.916 38.5181 162.363C38.3974 162.207 38.1189 162.347 38.2338 162.516Z" fill="white"/>
<path d="M57.7415 162.393C58.6708 161.358 59.4958 159.437 58.8031 158.132C58.7186 157.972 58.4874 158.069 58.4724 158.214C58.3961 158.917 58.5608 159.582 58.3947 160.296C58.2339 160.993 57.9052 161.617 57.4891 162.215C57.393 162.353 57.6247 162.525 57.7415 162.393Z" fill="white"/>
<path d="M56.3787 162.496C57.0772 161.688 57.42 160.411 56.665 159.527C56.5424 159.384 56.2764 159.54 56.3353 159.702C56.6698 160.628 56.8426 161.486 56.1368 162.325C56.0321 162.451 56.2706 162.622 56.3787 162.496Z" fill="white"/>
<path d="M54.3277 164.233C54.4315 163.988 54.3248 163.718 54.0795 163.587C53.8382 163.455 53.6291 163.79 53.8609 163.93C53.9473 163.98 53.9786 164.047 53.9521 164.139C53.8855 164.366 54.2384 164.444 54.3277 164.233Z" fill="white"/>
<path d="M118.539 155.536C121.236 154.751 123.858 154.589 125.821 156.77C127.095 158.185 128.103 159.966 128.787 161.676C128.855 161.847 129.143 161.78 129.088 161.6C128.453 159.541 126.943 156.981 125.066 155.649C123.075 154.235 120.704 154.682 118.485 155.354C118.359 155.392 118.412 155.574 118.539 155.536Z" fill="white"/>
<path d="M127.144 160.559C126.993 159.459 125.641 158.335 124.427 158.324C124.256 158.322 124.235 158.541 124.388 158.588C124.983 158.772 125.515 158.923 125.993 159.317C126.44 159.686 126.661 160.132 126.92 160.613C126.97 160.709 127.16 160.667 127.144 160.559Z" fill="white"/>
<path d="M129.092 160.793C131.299 157.538 133.571 153.678 138.315 153.593C138.604 153.587 138.605 153.175 138.315 153.181C133.576 153.262 130.705 157.11 128.876 160.677C128.808 160.809 129.005 160.92 129.092 160.793Z" fill="white"/>
<path d="M156.215 154.048C161.432 155.153 165.515 158.265 167.213 162.98C167.277 163.159 167.582 163.085 167.523 162.902C165.997 158.258 161.541 154.521 156.235 153.915C156.152 153.906 156.134 154.032 156.215 154.048Z" fill="white"/>
<path d="M167.872 161.933C170.264 157.032 172.938 152.467 178.935 150.91C179.119 150.863 179.092 150.568 178.888 150.593C172.786 151.343 169.811 157.244 167.648 161.812C167.583 161.951 167.803 162.073 167.872 161.933Z" fill="white"/>
<path d="M76.6836 162.238C81.2059 163.744 84.4253 167.519 84.854 171.923C84.8699 172.085 85.0886 172.107 85.1542 171.959C87.8576 165.94 93.5935 161.341 100.555 159.921C100.773 159.876 100.681 159.561 100.463 159.611C94.3012 161.042 88.938 164.606 85.9126 169.792C85.0442 171.28 85.3261 171.841 84.8168 170.044C84.4726 168.825 83.902 167.662 83.1465 166.611C81.5921 164.451 79.3686 162.953 76.7294 162.084C76.6237 162.049 76.5788 162.203 76.6836 162.238Z" fill="white"/>
<path d="M40.522 156.853C43.1221 159.53 44.5529 162.658 44.5693 166.263C44.5703 166.414 44.7706 166.441 44.857 166.333C48.9174 161.297 54.9396 157.697 61.9504 157.99C62.1416 157.998 62.1396 157.729 61.9504 157.719C56.535 157.386 51.4624 159.607 47.6024 162.994C47.1578 163.385 45.571 165.575 45.0405 165.633C44.941 165.642 44.5104 163.032 44.4371 162.765C43.7984 160.462 42.4993 158.392 40.6818 156.705C40.579 156.609 40.425 156.752 40.522 156.853Z" fill="white"/>
<path d="M79.3623 142.696C82.7193 144.738 85.8697 140.378 82.8438 138.13C79.384 135.56 75.427 139.43 76.3901 142.77C77.5149 146.666 82.7531 147.513 86.0348 145.305C88.8115 143.435 92.0241 136.114 86.5557 135.402C86.3437 135.373 86.2457 135.664 86.4654 135.704C90.35 136.392 89.2846 140.985 87.7717 143.161C86.2172 145.393 83.3589 146.716 80.4794 146.052C77.9175 145.462 76.1642 143.237 76.6155 140.816C76.9255 139.151 78.3558 137.684 80.335 137.635C81.9373 137.639 83.0481 138.353 83.6655 139.775C83.3503 142.769 81.9532 143.683 79.4758 142.518C79.3527 142.448 79.2426 142.624 79.3623 142.696Z" fill="white"/>
<path d="M91.2898 134.567C87.4472 138.578 91.9637 144.997 97.5345 143.357C97.7242 143.301 97.6451 143.055 97.4539 143.087C91.9169 144.009 88.3287 138.981 91.4361 134.671C91.494 134.589 91.3607 134.494 91.2898 134.567Z" fill="white"/>
<path d="M143.588 136.617C151.145 134.972 158.382 130.135 162.144 123.852C162.236 123.697 161.991 123.565 161.886 123.713C157.386 130.034 151.481 134.295 143.548 136.48C143.451 136.506 143.491 136.639 143.588 136.617Z" fill="white"/>
<path d="M155.983 143.609C162.108 142.263 167.731 137.126 168.905 131.391C168.943 131.205 168.66 131.13 168.593 131.313C166.433 137.239 162.392 141.278 155.913 143.379C155.756 143.429 155.817 143.645 155.983 143.609Z" fill="white"/>
<path d="M164.507 138.922C164.569 136.586 163.611 134.344 161.647 132.809C160.786 132.135 159.785 131.634 158.707 131.326C157.972 131.115 156.409 130.701 155.672 131.052C154.037 131.832 156.722 134.157 157.422 134.807C159.338 136.588 161.755 137.83 164.393 138.445C164.645 138.504 164.751 138.149 164.5 138.088C162.785 137.66 161.173 137.022 159.708 136.093C158.601 135.39 155.305 133.088 155.989 131.811C156.826 130.249 160.836 132.548 161.789 133.387C163.441 134.841 164.224 136.852 164.244 138.922C164.245 139.079 164.503 139.077 164.507 138.922Z" fill="white"/>
<path d="M164.709 138.115C166.661 134.814 166.569 131.03 164.447 127.815C164.362 127.687 164.178 127.729 164.125 127.853C162.817 130.879 162.812 134.194 164.395 137.134C164.472 137.28 164.752 137.175 164.683 137.022C164.032 135.56 163.568 134.096 163.519 132.503C163.49 131.595 163.438 128.677 164.5 128.515C165.292 128.395 165.818 132.859 165.817 133.251C165.815 134.938 165.341 136.509 164.487 137.996C164.409 138.129 164.629 138.248 164.709 138.115Z" fill="white"/>
<path d="M164.133 138.403C160.639 137.26 156.849 137.559 153.461 138.856C153.324 138.908 153.265 139.087 153.416 139.164C156.577 140.787 160.678 140.908 163.69 138.904C163.811 138.823 163.708 138.651 163.571 138.717C162.089 139.43 160.608 139.97 158.916 140.056C158.384 140.083 153.871 139.664 154.187 139.039C154.567 138.285 158.14 138.06 158.755 138.029C160.574 137.934 162.308 138.199 164.077 138.586C164.209 138.615 164.259 138.442 164.133 138.403Z" fill="white"/>
<path d="M160.662 129.575C160.652 129.585 160.642 129.595 160.632 129.605C160.45 129.72 160.509 130.001 160.749 130.001C160.989 130.001 161.05 129.72 160.867 129.605C160.857 129.595 160.847 129.585 160.837 129.575C160.798 129.53 160.702 129.53 160.662 129.575Z" fill="white"/>
<path d="M154.114 136.239C154.335 136.289 154.534 136.12 154.478 135.914C154.464 135.858 154.405 135.795 154.339 135.786C154.13 135.757 153.98 135.842 153.971 136.045C153.963 136.225 154.224 136.266 154.321 136.131C154.31 136.137 154.298 136.14 154.286 136.146C154.229 136.115 154.172 136.084 154.115 136.054C154.141 136.028 154.167 136.002 154.194 135.976C154.009 135.953 153.922 136.198 154.114 136.239Z" fill="white"/>
<path d="M56.9748 141.818C57.3644 136.312 55.0713 130.986 50.9777 126.988C50.8869 126.9 50.7262 126.949 50.691 127.059C48.8083 132.849 52.8585 137.869 56.8184 142.003C56.9482 142.141 57.1549 141.944 57.0322 141.808C55.2973 139.881 53.4696 137.984 52.1966 135.756C51.3214 134.224 50.6668 132.53 50.5259 130.793C50.4544 129.904 50.2502 127.337 51.5092 127.989C52.4394 128.471 53.3784 130.245 53.9128 131.106C54.6007 132.214 55.1718 133.387 55.6154 134.593C56.4756 136.933 56.7947 139.356 56.7817 141.818C56.7817 141.933 56.9671 141.932 56.9748 141.818Z" fill="white"/>
<path d="M57.434 141.337C58.5694 140.266 65.6319 132.647 62.4439 131.617C60.972 131.142 59.2979 133.21 58.665 134.101C57.1989 136.158 56.6867 138.682 56.3377 141.076C56.3141 141.233 56.6056 141.27 56.639 141.114C56.9469 139.675 57.1787 138.221 57.6768 136.824C58.079 135.697 59.1666 133.116 60.5352 132.625C62.6438 132.713 63.1835 133.372 62.1523 134.599C62.0572 134.787 61.9617 134.974 61.8675 135.161C61.476 135.904 61.0396 136.624 60.5675 137.328C59.6266 138.727 58.5381 140.027 57.3216 141.232C57.2525 141.301 57.3626 141.404 57.434 141.337Z" fill="white"/>
<path d="M56.6984 141.891C61.3689 141.734 65.5499 139.631 68.2982 136.18C68.4362 136.007 68.1225 135.844 67.9858 136.013C65.2569 139.386 61.2506 141.36 56.6979 141.691C56.5608 141.703 56.5574 141.897 56.6984 141.891Z" fill="white"/>
<path d="M25.457 54.7027C30.4906 57.2172 35.0414 60.2698 39.5255 63.5225C39.9388 63.8236 40.5253 63.3228 40.1193 62.9787C35.8823 59.3842 30.8743 56.6035 25.6622 54.3821C25.4285 54.2816 25.2234 54.5876 25.457 54.7027Z" fill="#0D0D19"/>
<path d="M59.286 52.8076C58.4383 54.0514 58.8733 55.8097 60.3191 56.508C61.5076 57.0822 64.1018 56.7094 64.1781 55.1743C64.1969 54.7891 63.719 54.5929 63.3806 54.755C62.9833 54.9458 62.7685 55.3111 62.3504 55.4927C61.9295 55.6747 61.4086 55.7304 60.9611 55.5919C59.9189 55.27 59.5423 54.0386 59.9865 53.184C60.2095 52.7554 59.5665 52.395 59.286 52.8076Z" fill="#0D0D19"/>
<path d="M74.5727 52.1601C75.8814 56.8004 77.1515 61.4966 79.2302 65.9067C80.7296 69.089 82.8136 73.6771 86.8006 74.827C90.8609 75.9972 93.5898 72.5843 95.5734 69.9183C98.8425 65.521 103.269 62.7151 108.762 61.1003C109.367 60.9223 109.121 60.0832 108.499 60.224C105.004 61.0162 101.756 62.6699 99.0511 64.8391C97.6955 65.9266 96.4906 67.1611 95.4383 68.5005C93.7902 70.5957 92.41 73.3118 89.446 73.9742C84.1773 75.1533 81.319 68.2738 79.7274 64.7944C77.8317 60.6513 76.4405 56.3435 75.0902 52.0312C74.9951 51.7261 74.4868 51.8541 74.5727 52.1601Z" fill="#0D0D19"/>
<path d="M117.27 126.094C122.005 128.14 126.906 129.872 131.723 131.744C136.271 133.511 140.758 135.653 145.416 137.148C145.864 137.291 146.144 136.659 145.736 136.451C141.441 134.253 136.631 132.673 132.101 130.923C127.282 129.062 122.436 127.16 117.454 125.696C117.201 125.622 117.025 125.987 117.27 126.094Z" fill="#0D0D19"/>
<path d="M72.6322 132.985C70.9788 128.228 68.9783 123.332 65.9569 119.145C65.6107 118.667 64.8441 119.081 65.1188 119.596C67.5248 124.092 70.1635 128.426 72.1871 133.097C72.2948 133.344 72.7244 133.25 72.6322 132.985Z" fill="#0D0D19"/>
</svg>
