<svg width="50" height="50" viewBox="0 0 50 50" fill="none" xmlns="http://www.w3.org/2000/svg">
<path d="M25 50C23.3507 50 21.8316 49.5877 20.4427 48.763C19.0972 47.9818 18.0122 46.9184 17.1875 45.5729C16.4062 44.184 16.0156 42.6649 16.0156 41.0156C16.0156 38.9323 16.4931 37.1962 17.4479 35.8073C18.4028 34.4184 19.8785 32.7908 21.875 30.9245C23.3507 29.579 24.0885 28.2986 24.0885 27.0833V25.9115H22.9167C21.5712 25.9115 19.7266 27.2569 17.3828 29.9479C15.0825 32.6389 12.283 33.9844 8.98438 33.9844C7.33507 33.9844 5.81597 33.5937 4.42708 32.8125C3.0816 31.9878 1.99653 30.9028 1.17188 29.5573C0.390625 28.1684 0 26.6493 0 25C0 23.3507 0.390625 21.8533 1.17188 20.5078C1.99653 19.1189 3.0816 18.0339 4.42708 17.2526C5.81597 16.4279 7.33507 16.0156 8.98438 16.0156C12.2396 16.0156 15.0174 17.3394 17.3177 19.987C19.6181 22.6345 21.4844 23.9583 22.9167 23.9583H24.0885V22.9167C24.0885 21.7014 23.3507 20.421 21.875 19.0755L20.3776 17.7083C19.2925 16.7101 18.2943 15.5165 17.3828 14.1276C16.4714 12.6953 16.0156 10.9809 16.0156 8.98437C16.0156 7.33507 16.4062 5.83767 17.1875 4.49219C18.0122 3.1033 19.0972 2.01823 20.4427 1.23698C21.8316 0.412326 23.3507 0 25 0C26.6493 0 28.1467 0.412326 29.4922 1.23698C30.8811 2.06163 31.9661 3.1467 32.7474 4.49219C33.572 5.83767 33.9844 7.33507 33.9844 8.98437C33.9844 12.2396 32.6606 15.0174 30.013 17.3177C27.3654 19.6181 26.0417 21.4844 26.0417 22.9167V23.9583H27.0833C28.559 23.9583 30.4253 22.6345 32.6823 19.987C34.8958 17.3394 37.6736 16.0156 41.0156 16.0156C42.6649 16.0156 44.1623 16.4279 45.5078 17.2526C46.8967 18.0339 47.9818 19.0972 48.763 20.4427C49.5877 21.7882 50 23.3073 50 25C50 26.6493 49.5877 28.1684 48.763 29.5573C47.9818 30.9028 46.8967 31.9878 45.5078 32.8125C44.1623 33.5937 42.6649 33.9844 41.0156 33.9844C38.9757 33.9844 37.2179 33.4852 35.7422 32.487C34.3099 31.4887 32.704 30.0347 30.9245 28.125C29.579 26.6493 28.2986 25.9115 27.0833 25.9115H26.0417V27.0833C26.0417 28.6892 27.3654 30.5556 30.013 32.6823C32.6606 34.809 33.9844 37.5868 33.9844 41.0156C33.9844 42.6649 33.572 44.184 32.7474 45.5729C31.9661 46.9184 30.9028 47.9818 29.5573 48.763C28.2118 49.5877 26.6927 50 25 50Z" fill="#1F1951"/>
</svg>
