<svg width="24" height="24" viewBox="0 0 24 24" fill="none" xmlns="http://www.w3.org/2000/svg">
<path d="M23.9917 11.4596C23.8787 8.3945 22.5756 5.49119 20.3541 3.35583C18.1327 1.22048 15.1649 0.0181793 12.0703 3.2837e-06H12.0119C9.92792 -0.00153111 7.87955 0.534701 6.06814 1.55593C4.25678 2.57716 2.74488 4.0482 1.68123 5.8243C0.61757 7.60041 0.0388089 9.62042 0.00188464 11.6855C-0.0350388 13.7506 0.471148 15.7895 1.47064 17.6019L0.409335 23.8962C0.407607 23.9091 0.408673 23.9222 0.412467 23.9347C0.416252 23.9472 0.422685 23.9587 0.431322 23.9686C0.439959 23.9784 0.450606 23.9862 0.462552 23.9917C0.474498 23.9971 0.487477 23.9999 0.500618 24H0.518876L6.80028 22.6152C8.42326 23.3874 10.2006 23.7882 12.0009 23.7877C12.1154 23.7877 12.2297 23.7877 12.3441 23.7877C13.9278 23.7429 15.4869 23.3877 16.9312 22.7426C18.3757 22.0974 19.6768 21.1752 20.7597 20.029C21.8426 18.8829 22.6858 17.5355 23.2405 16.0646C23.7952 14.5939 24.0505 13.0287 23.9917 11.4596ZM12.2845 21.7189C12.1895 21.7189 12.0946 21.7189 12.0009 21.7189C10.4098 21.7209 8.84146 21.3435 7.42831 20.6188L7.10699 20.4523L2.84717 21.4499L3.63341 17.1785L3.45085 16.8721C2.5789 15.3987 2.10924 13.7256 2.08813 12.0175C2.06702 10.3095 2.49519 8.62546 3.33046 7.13134C4.16574 5.63719 5.37931 4.38446 6.85164 3.49654C8.32398 2.6086 10.0043 2.11611 11.7271 2.06755C11.8228 2.06755 11.919 2.06755 12.0155 2.06755C14.6166 2.07519 17.1106 3.09526 18.9601 4.90798C20.8095 6.72069 21.8665 9.18098 21.9033 11.7587C21.9399 14.3364 20.9535 16.8252 19.1564 18.689C17.3592 20.5527 14.8953 21.6422 12.2954 21.7226L12.2845 21.7189Z" fill="white"/>
<path d="M7.82854 6.15205C7.68026 6.15493 7.53405 6.18725 7.39858 6.24713C7.26312 6.30701 7.14114 6.39323 7.0399 6.50067C6.75388 6.79138 5.95425 7.49102 5.908 8.96026C5.86175 10.4295 6.8975 11.8831 7.04233 12.0869C7.18717 12.2907 9.02252 15.4645 12.0458 16.7515C13.8228 17.5103 14.6017 17.6406 15.1068 17.6406C15.3149 17.6406 15.4719 17.6189 15.6362 17.6092C16.19 17.5755 17.44 16.941 17.7126 16.251C17.9852 15.561 18.0035 14.9579 17.9316 14.8372C17.8599 14.7166 17.6627 14.6297 17.3657 14.4753C17.0688 14.3209 15.6119 13.5489 15.338 13.4403C15.2365 13.3935 15.1272 13.3653 15.0155 13.3571C14.9427 13.3609 14.872 13.3822 14.8095 13.4192C14.7469 13.4562 14.6944 13.5078 14.6564 13.5694C14.4131 13.8698 13.8544 14.5223 13.6669 14.7106C13.626 14.7573 13.5756 14.795 13.519 14.8212C13.4624 14.8474 13.4008 14.8615 13.3383 14.8626C13.2232 14.8575 13.1106 14.8275 13.0085 14.7745C12.126 14.4031 11.3214 13.8711 10.6364 13.2063C9.99629 12.5811 9.45322 11.8652 9.02494 11.0821C8.85947 10.7781 9.02494 10.6213 9.17588 10.479C9.32682 10.3366 9.48866 10.14 9.64444 9.96986C9.7723 9.82458 9.87885 9.66218 9.96094 9.48738C10.0034 9.40626 10.0249 9.31594 10.0233 9.22459C10.0219 9.13315 9.9975 9.04363 9.95238 8.96387C9.88062 8.81187 9.34385 7.31732 9.09193 6.7178C8.88748 6.20513 8.64403 6.18825 8.43102 6.17257C8.25578 6.1605 8.05495 6.15447 7.85413 6.14844H7.82854" fill="white"/>
</svg>
