<svg width="50" height="50" viewBox="0 0 50 50" fill="none" xmlns="http://www.w3.org/2000/svg">
<path d="M23.6979 50C23.2205 47.1788 21.9618 44.1406 19.9219 40.8854C17.8819 37.5868 14.974 34.5269 11.1979 31.7057C7.46528 28.8845 3.73264 27.0833 0 26.3021V23.5677C3.68924 22.6997 7.22656 21.0938 10.612 18.75C14.0408 16.3628 16.9054 13.4983 19.2057 10.1562C21.5495 6.72743 23.0469 3.34201 23.6979 0H26.4323C26.8229 2.17014 27.6042 4.40538 28.776 6.70573C29.9479 8.96267 31.4453 11.1328 33.2682 13.2161C35.1345 15.2561 37.2179 17.1007 39.5182 18.75C42.947 21.1806 46.441 22.7865 50 23.5677V26.3021C47.6128 26.7795 45.1389 27.7561 42.5781 29.2318C40.0608 30.7075 37.717 32.4653 35.5469 34.5052C33.3767 36.5017 31.5972 38.6068 30.2083 40.8203C28.1684 44.0755 26.9097 47.1354 26.4323 50H23.6979Z" fill="#E13C6C"/>
</svg>
