<svg width="76" height="80" viewBox="0 0 76 80" fill="none" xmlns="http://www.w3.org/2000/svg">
<path d="M74.1442 63.0015C75.5507 60.1851 75.5507 56.8713 74.1442 54.0549C72.7199 51.6751 72.7199 48.7049 74.1442 46.3251C75.5507 43.5087 75.5507 40.1949 74.1442 37.3785C72.7951 35.3888 72.4122 32.8981 73.0993 30.5935L74.674 25.8554C75.0569 24.5527 74.6596 23.1464 73.654 22.2303C72.6484 21.3177 71.2098 21.0565 69.9501 21.5611L67.8745 22.4629C65.0116 23.8943 61.9054 22.4629 59.2858 21.1889C58.8564 20.0008 58.9137 18.326 58.1121 16.9948C56.7558 15.0086 56.3658 12.5144 57.0529 10.2098L58.6275 5.48602C59.0355 4.1798 58.6454 2.7555 57.6327 1.83222C56.6199 0.912523 55.167 0.662054 53.9038 1.19165L51.8139 2.09347C50.021 2.85571 47.9955 2.85571 46.2026 2.09347L43.2252 0.805208C40.7094 -0.268403 37.8679 -0.268403 35.3522 0.805208L32.3605 2.09347C29.4976 3.52492 26.4199 2.09347 23.7718 0.805208C21.256 -0.254019 18.4145 -0.254019 15.8987 0.805208L12.7638 2.23666C11.0497 2.96312 9.11718 2.99532 7.38157 2.32255L5.04829 1.32048C3.77075 0.826636 2.32134 1.12008 1.33366 2.07199C0.349557 3.02394 0.00600983 4.46254 0.453319 5.75794L2.04225 10.31C2.64704 12.0528 2.55399 13.9602 1.78459 15.635C-0.319665 18.8665 -0.559416 22.9712 1.15475 26.4279C2.29277 28.525 2.29277 31.0587 1.15475 33.1558C-0.294563 35.9077 -0.384069 39.175 0.91141 42.0021V42.1023L1.78459 43.906C3.50233 46.912 1.45535 50.9057 0.49633 53.8405C0.0740501 55.1324 0.428336 56.5566 1.41246 57.4978C2.39656 58.439 3.83159 58.7289 5.10556 58.2493L7.39588 57.3618C10.2588 56.0592 13.3364 57.6481 15.913 58.7933C16.3854 59.7953 16.2852 61.3842 16.9866 62.5008L17.7883 64.3044C19.506 67.3391 17.4733 71.3042 16.5143 74.2389C16.1099 75.5236 16.4713 76.9301 17.4483 77.8605C18.4217 78.7909 19.8424 79.0843 21.1092 78.6191L23.3995 77.746C27.6939 75.7992 31.5874 80.1938 35.8671 79.9933C40.1615 80.1651 44.055 75.699 48.4071 77.9035L51.3845 79.1774C53.9039 80.2546 56.7525 80.2546 59.2718 79.1774C61.92 77.9607 64.9976 76.515 67.8605 77.9035L69.9361 78.8053C71.1994 79.3206 72.6451 79.0665 73.6543 78.1504C74.6635 77.2307 75.0535 75.8171 74.6599 74.5109C73.7152 71.4475 71.6396 67.3536 73.4718 64.3336L74.1442 63.0015ZM52.9441 4.59828L55.0054 3.71078C55.2452 3.607 55.5243 3.65352 55.714 3.82888C55.9072 4.00424 55.9788 4.27979 55.8929 4.52671L54.3183 9.25045C53.4809 11.7698 53.6741 14.5182 54.8622 16.8944C55.5099 17.9645 55.9537 19.1418 56.1792 20.3729C54.5437 20.2226 52.894 20.4838 51.3838 21.1316L48.4064 22.4055C45.5434 23.837 42.4372 22.4055 39.8176 21.1316C37.3019 20.0579 34.4604 20.0579 31.9446 21.1316C29.4396 22.2481 26.3476 23.8227 23.585 22.563L42.9666 3.69626C46.0299 5.2709 49.6944 6.12988 52.9441 4.59828ZM33.4764 4.59828C35.2514 3.88256 37.7707 2.47973 39.7748 2.80899L20.5645 21.5612C19.43 21.3071 18.2456 21.6364 17.401 22.4344C16.535 23.2646 16.1592 24.4814 16.4133 25.6551L2.88577 38.8098C2.67105 37.3104 2.93587 35.7823 3.64443 34.4439C5.02577 31.8566 5.19397 28.7932 4.1025 26.07L26.5046 4.94221C28.7949 5.67583 31.2719 5.55378 33.4764 4.59828ZM4.74752 9.30773L3.21585 4.75567C3.12996 4.51233 3.19796 4.24393 3.38762 4.06858C3.57371 3.88607 3.84569 3.83239 4.08903 3.92543L6.37935 4.81293C8.81643 5.75407 11.5219 5.70758 13.9231 4.6841C16.6 3.43872 19.7348 1.89275 22.6836 3.3242L23.657 3.73932L2.97264 23.207C2.62909 21.6754 2.8116 20.0721 3.48796 18.655C5.25224 15.8708 5.71019 12.4568 4.74752 9.30773ZM13.8658 54.8283C11.4681 53.7905 8.75559 53.744 6.32207 54.6995L4.03175 55.5727C3.79198 55.68 3.50928 55.6228 3.33035 55.4295C3.15499 55.2506 3.11205 54.9822 3.21583 54.7567L4.80476 50.1904C5.73518 47.4026 5.4346 44.3536 3.97452 41.8021L17.4444 28.6474C18.3891 30.9807 19.1048 33.6861 17.8595 36.048C15.7552 39.2759 15.5155 43.377 17.2296 46.8272C18.3534 48.935 18.3534 51.4615 17.2296 53.5693C16.8503 54.2994 16.5569 55.0723 16.3565 55.874L13.8658 54.8283ZM71.253 54.6565C72.5628 56.7965 72.6881 59.4591 71.5823 61.7136L70.9238 63.0448C69.725 65.4174 69.5318 68.1694 70.3799 70.6888L71.9258 75.4269C72.0117 75.6702 71.9437 75.9422 71.7541 76.1176C71.5644 76.2894 71.2888 76.3359 71.0527 76.2285L69.0629 75.341C66.5471 74.2674 63.7057 74.2674 61.1899 75.341C58.513 76.5577 55.4641 78.0179 52.6012 76.615L49.6238 75.341C47.108 74.2674 44.2665 74.2674 41.7507 75.341L38.7733 76.615C35.8245 78.0464 32.704 76.4862 29.9985 75.2694C27.6009 74.228 24.8883 74.1779 22.4548 75.1262L20.1645 76.0137C19.9283 76.1139 19.6527 76.0567 19.4774 75.8706C19.2841 75.6988 19.2161 75.4268 19.3056 75.1835L20.8802 70.6314C21.7176 68.155 21.5459 65.4496 20.3935 63.102C18.9621 60.554 18.1891 57.6052 19.7208 54.8854C21.2846 51.9438 21.2846 48.4224 19.7208 45.4804C18.6651 43.4907 18.6078 41.1217 19.5633 39.0818C21.3419 36.3084 21.8035 32.8944 20.823 29.7483L19.2483 25.1819C19.166 24.9386 19.2269 24.6702 19.4129 24.4913C19.5955 24.3159 19.8674 24.2587 20.1072 24.3517C23.1848 25.7832 26.7348 26.6134 29.9409 25.1104L33.0901 23.7648C35.953 22.3333 39.0306 23.7648 41.6788 25.0387C44.1946 26.1123 47.0361 26.1123 49.5518 25.0387C52.2 23.822 55.2776 22.3476 58.1405 23.7648L61.118 25.0387C64.3674 26.5417 68.0175 25.7115 71.1386 24.1369C71.3748 24.026 71.6575 24.0796 71.84 24.2657C72.0332 24.4375 72.1012 24.7095 72.0117 24.9528L70.4371 29.691C69.589 32.2032 69.7822 34.9515 70.9811 37.3206C72.5485 39.5966 72.799 42.5275 71.6395 45.0361C69.9075 47.9741 69.7643 51.5849 71.253 54.6554L71.253 54.6565Z" fill="#E13C6C"/>
<path d="M26.992 37.2926H29.1392V39.4399C29.1392 40.2307 29.7798 40.8713 30.5707 40.8713C31.3615 40.8713 32.0021 40.2307 32.0021 39.4399V37.2926H34.1493C34.9402 37.2926 35.5808 36.6521 35.5808 35.8612C35.5808 35.0703 34.9402 34.4297 34.1493 34.4297H32.0021V32.2825C32.0021 31.4916 31.3615 30.8511 30.5707 30.8511C29.7798 30.8511 29.1392 31.4916 29.1392 32.2825V34.4297H26.992C26.2011 34.4297 25.5605 35.0703 25.5605 35.8612C25.5605 36.6521 26.2011 37.2926 26.992 37.2926Z" fill="#E13C6C"/>
<path d="M42.0223 37.2926H44.1695V39.4399C44.1695 40.2307 44.8101 40.8713 45.6009 40.8713C46.3918 40.8713 47.0324 40.2307 47.0324 39.4399V37.2926H49.1796C49.9705 37.2926 50.6111 36.6521 50.6111 35.8612C50.6111 35.0703 49.9705 34.4297 49.1796 34.4297H47.0324V32.2825C47.0324 31.4916 46.3918 30.8511 45.6009 30.8511C44.8101 30.8511 44.1695 31.4916 44.1695 32.2825V34.4297H42.0223C41.2314 34.4297 40.5908 35.0703 40.5908 35.8612C40.5908 36.6521 41.2314 37.2926 42.0223 37.2926Z" fill="#E13C6C"/>
<path d="M64.2099 34.4297H62.0627V32.2825C62.0627 31.4916 61.4221 30.8511 60.6312 30.8511C59.8403 30.8511 59.1998 31.4916 59.1998 32.2825V34.4297H57.0525C56.2617 34.4297 55.6211 35.0703 55.6211 35.8612C55.6211 36.6521 56.2617 37.2926 57.0525 37.2926H59.1998V39.4399C59.1998 40.2307 59.8403 40.8713 60.6312 40.8713C61.4221 40.8713 62.0627 40.2307 62.0627 39.4399V37.2926H64.2099C65.0008 37.2926 65.6413 36.6521 65.6413 35.8612C65.6413 35.0703 65.0008 34.4297 64.2099 34.4297Z" fill="#E13C6C"/>
<path d="M41.664 51.6213C42.4549 51.6213 43.0954 50.9807 43.0954 50.1898C43.0954 49.3989 42.4549 48.7584 41.664 48.7584H39.5168V46.6111C39.5168 45.8203 38.8762 45.1797 38.0853 45.1797C37.2944 45.1797 36.6539 45.8203 36.6539 46.6111V48.7584H34.5066C33.7158 48.7584 33.0752 49.3989 33.0752 50.1898C33.0752 50.9807 33.7158 51.6213 34.5066 51.6213H36.6539V53.7685C36.6539 54.5594 37.2944 55.1999 38.0853 55.1999C38.8762 55.1999 39.5168 54.5594 39.5168 53.7685V51.6213H41.664Z" fill="#E13C6C"/>
<path d="M58.1257 50.1893C58.1257 49.81 57.9754 49.445 57.707 49.1766C57.4386 48.9081 57.0736 48.7579 56.6943 48.7579H54.547V46.6106C54.547 45.8198 53.9065 45.1792 53.1156 45.1792C52.3247 45.1792 51.6841 45.8198 51.6841 46.6106V48.7579H49.5369C48.746 48.7579 48.1055 49.3984 48.1055 50.1893C48.1055 50.9802 48.746 51.6208 49.5369 51.6208H51.6841V53.768C51.6841 54.5589 52.3247 55.1994 53.1156 55.1994C53.9065 55.1994 54.547 54.5589 54.547 53.768V51.6208H56.6943C57.0736 51.6208 57.4386 51.4705 57.707 51.2021C57.9755 50.9337 58.1257 50.5687 58.1257 50.1893Z" fill="#E13C6C"/>
<path d="M34.1493 63.0728H32.0021V60.9256C32.0021 60.1347 31.3615 59.4941 30.5707 59.4941C29.7798 59.4941 29.1392 60.1347 29.1392 60.9256V63.0728H26.992C26.2011 63.0728 25.5605 63.7134 25.5605 64.5043C25.5605 65.2951 26.2011 65.9357 26.992 65.9357H29.1392V68.0829C29.1392 68.8738 29.7798 69.5144 30.5707 69.5144C31.3615 69.5144 32.0021 68.8738 32.0021 68.0829V65.9357H34.1493C34.9402 65.9357 35.5808 65.2951 35.5808 64.5043C35.5808 63.7134 34.9402 63.0728 34.1493 63.0728Z" fill="#E13C6C"/>
<path d="M49.1796 63.0728H47.0324V60.9256C47.0324 60.1347 46.3918 59.4941 45.6009 59.4941C44.8101 59.4941 44.1695 60.1347 44.1695 60.9256V63.0728H42.0223C41.2314 63.0728 40.5908 63.7134 40.5908 64.5043C40.5908 65.2951 41.2314 65.9357 42.0223 65.9357H44.1695V68.0829C44.1695 68.8738 44.8101 69.5144 45.6009 69.5144C46.3918 69.5144 47.0324 68.8738 47.0324 68.0829V65.9357H49.1796C49.9705 65.9357 50.6111 65.2951 50.6111 64.5043C50.6111 63.7134 49.9705 63.0728 49.1796 63.0728Z" fill="#E13C6C"/>
<path d="M64.2099 63.0728H62.0627V60.9256C62.0627 60.1347 61.4221 59.4941 60.6312 59.4941C59.8403 59.4941 59.1998 60.1347 59.1998 60.9256V63.0728H57.0525C56.2617 63.0728 55.6211 63.7134 55.6211 64.5043C55.6211 65.2951 56.2617 65.9357 57.0525 65.9357H59.1998V68.0829C59.1998 68.8738 59.8403 69.5144 60.6312 69.5144C61.4221 69.5144 62.0627 68.8738 62.0627 68.0829V65.9357H64.2099C65.0008 65.9357 65.6413 65.2951 65.6413 64.5043C65.6413 63.7134 65.0008 63.0728 64.2099 63.0728Z" fill="#E13C6C"/>
</svg>
