<svg width="80" height="80" viewBox="0 0 80 80" fill="none" xmlns="http://www.w3.org/2000/svg">
<path d="M73.1034 6.88468H64.8276V1.37694C64.8276 0.550775 64.2759 0 63.4483 0H49.6552C48.8276 0 48.2759 0.550775 48.2759 1.37694V6.88468H40C36.1379 6.88468 33.1034 9.91394 33.1034 13.7694V22.3064C32.2759 22.1687 31.5862 22.1687 30.7586 22.031C30.4828 21.8933 30.2069 21.8933 29.931 22.031C29.6552 22.031 29.2414 22.031 28.9655 22.031C12.9655 22.031 0 34.9742 0 50.9466C0 57.2806 2.06897 63.2014 5.65517 68.0207C5.7931 68.1583 5.93103 68.4337 6.06897 68.5714C11.3103 75.4561 19.7241 80 29.1034 80C36.2759 80 42.7586 77.3838 47.8621 73.1153H48.2759V78.6231C48.2759 79.4492 48.8276 80 49.6552 80H63.4483C64.2759 80 64.8276 79.4492 64.8276 78.6231V73.1153H73.1034C76.9655 73.1153 80 70.0861 80 66.2306V13.7694C80 9.91394 76.9655 6.88468 73.1034 6.88468ZM24.4138 76.6954L32.2759 68.8468H37.7931L28.5517 77.1084C27.0345 77.1084 25.7931 76.9707 24.4138 76.6954ZM17.3793 74.3546L24 68.8468H28.4138L21.2414 76.0069C19.8621 75.5938 18.6207 75.043 17.3793 74.3546ZM5.24138 61.9621H31.5862L37.1034 66.0929H31.7241H7.58621C6.75862 64.8537 5.93104 63.4768 5.24138 61.9621ZM2.75862 50.9466C2.75862 47.7797 3.31034 44.7504 4.41379 41.8589L5.51724 42.685V59.2083H4.13793C3.31034 56.5921 2.75862 53.8382 2.75862 50.9466ZM7.72414 35.6627L49.1034 67.6076C48.4138 68.4337 47.7241 69.1222 47.0345 69.8107L42.4828 66.3683C42.3448 66.2306 42.2069 66.0929 42.069 66.0929L5.51724 39.2427C6.2069 38.0034 6.89655 36.9019 7.72414 35.6627ZM30.7586 24.9225C32.8276 25.0602 34.7586 25.3356 36.6897 26.0241L17.5172 39.9312L14.3448 37.4527L30.7586 24.9225ZM44.1379 60.4475V44.062H48.2759V63.6145L44.1379 60.4475ZM41.3793 46.8158H26.6207L23.0345 44.062H41.3793V46.8158ZM41.3793 49.5697V52.3236H33.6552L30.069 49.5697H41.3793ZM41.3793 55.0775V58.2444L37.2414 55.0775H41.3793ZM20.2759 41.3081L25.931 37.1773C26.069 37.1773 26.069 37.1773 26.2069 37.1773H51.0345H51.1724C52 38.5542 52.6897 39.9312 53.2414 41.3081H20.2759ZM39.5862 27.1256C40.8276 27.6764 41.931 28.2272 43.0345 28.9157H37.2414L39.4483 27.2633L39.5862 27.1256ZM33.3793 31.6695H46.6207C47.5862 32.4957 48.4138 33.4596 49.2414 34.4234H29.6552L33.3793 31.6695ZM57.7931 49.5697H77.2414V55.0775H57.6552C57.7931 53.7005 57.931 52.3236 57.931 50.9466C57.931 50.5336 57.931 49.9828 57.7931 49.5697ZM57.6552 46.8158C57.3793 44.8881 56.9655 43.0981 56.2759 41.3081H77.2414V46.8158H57.6552ZM55.1724 38.5542C54.2069 36.6265 52.9655 34.6988 51.7241 33.0465H77.2414V38.5542H55.1724ZM49.6552 30.2926C49.5172 30.2926 49.3793 30.2926 49.2414 30.4303C46.8966 28.0895 44.1379 26.2995 41.2414 24.7849H77.2414V30.2926H49.6552ZM35.8621 16.5232H77.2414V22.031H35.8621V16.5232ZM8.27586 59.2083V44.7504L12.5517 47.9174C12.5517 48.0551 12.4138 48.1928 12.4138 48.3305V59.346H8.27586V59.2083ZM15.1724 49.8451L20.4138 53.7005H15.1724V49.8451ZM15.1724 56.4544H24.1379L27.8621 59.2083H15.1724V56.4544ZM41.3793 69.2599L44.6897 71.7384C41.2414 74.3546 37.2414 76.1446 32.8276 76.6954L41.3793 69.2599ZM51.0345 64.9914V44.062H54.2069C54.7586 46.2651 55.1724 48.6059 55.1724 50.9466C55.1724 56.179 53.6552 60.9983 51.0345 64.9914ZM57.1035 57.8313H77.2414V63.3391H55.0345C56 61.5491 56.5517 59.759 57.1035 57.8313ZM51.0345 2.75387H62.069V6.88468H51.0345V2.75387ZM40 9.63855H49.6552H63.4483H73.1034C75.4483 9.63855 77.2414 11.4286 77.2414 13.7694H35.8621C35.8621 11.4286 37.6552 9.63855 40 9.63855ZM26.069 24.9225L12.1379 35.6627L9.37931 33.5972C13.6552 28.9157 19.4483 25.7487 26.069 24.9225ZM9.93103 68.8468H19.7241L14.8966 72.8399C12.9655 71.7384 11.3103 70.3614 9.93103 68.8468ZM62.069 77.1084H51.0345V72.9776H62.069V77.1084ZM73.1034 70.2238H63.4483H50.4828C51.0345 69.673 51.4483 68.9845 52 68.4337C52 68.4337 52.1379 68.4337 52.1379 68.296C52.1379 68.296 52.2759 68.1583 52.2759 68.0207C52.8276 67.3322 53.2414 66.6437 53.6552 65.9553H53.7931H77.2414C77.2414 68.4337 75.4483 70.2238 73.1034 70.2238Z" fill="#E13C6C"/>
</svg>
