<svg width="86" height="80" viewBox="0 0 86 80" fill="none" xmlns="http://www.w3.org/2000/svg">
<path d="M72.9476 53.6185C73.4239 52.4411 74.7733 51.8722 75.9495 52.3511C77.1294 52.8264 77.6995 54.1731 77.2196 55.3469C74.5892 61.8246 70.31 67.4703 64.9088 71.752C59.594 75.9649 53.1752 78.8708 46.1497 79.9726C44.894 80.167 43.7178 79.3064 43.5266 78.057C43.3318 76.8039 44.1941 75.6301 45.4461 75.4393C51.6449 74.4671 57.3237 71.8925 62.0401 68.1514C66.8245 64.3562 70.6164 59.3548 72.9476 53.6185ZM37.5373 15.2812C37.5373 14.0101 38.5728 12.9767 39.8465 12.9767C41.1201 12.9767 42.1557 14.0101 42.1557 15.2812V40.2378C42.1557 41.1524 41.6217 41.9446 40.8459 42.3154L24.977 51.4577C23.8765 52.0951 22.4657 51.7206 21.8308 50.6188C21.1921 49.5205 21.5674 48.1126 22.6715 47.479L37.5409 38.9127V15.277L37.5373 15.2812ZM68.2894 34.0913C67.3838 33.2019 67.3694 31.7471 68.2606 30.8398C69.1518 29.936 70.6095 29.9216 71.5187 30.811L75.0438 34.2605C73.7846 26.8142 70.2125 20.1562 65.0893 15.043C58.6307 8.59765 49.7044 4.60832 39.8469 4.60832C30.9997 4.60832 22.9065 7.81302 16.6754 13.1205C10.343 18.5181 5.92276 26.0763 4.57326 34.6425C4.37842 35.8956 3.20574 36.7526 1.95018 36.5581C0.694526 36.3637 -0.164222 35.1934 0.0306749 33.9404C1.55688 24.2505 6.54338 15.7101 13.6836 9.62813C20.7303 3.62569 29.8693 0 39.846 0C50.9774 0 61.0584 4.50452 68.3537 11.7851C74.0546 17.4743 78.0561 24.8561 79.5349 33.1126L81.725 29.5587C82.3925 28.4748 83.8141 28.1363 84.9002 28.8025C85.9863 29.4687 86.3254 30.8873 85.6579 31.9712L79.8669 41.3652C79.47 42.0637 78.7195 42.5354 77.8571 42.5354C77.1643 42.5354 76.5437 42.2329 76.1216 41.7504L68.2955 34.0844L68.2894 34.0913ZM34.2434 75.4383C35.4991 75.6327 36.3578 76.803 36.1629 78.056C35.9681 79.3091 34.7954 80.1661 33.5398 79.9716C32.0966 79.7447 30.7183 79.4531 29.4121 79.1074C28.0446 78.7437 26.706 78.308 25.4071 77.8112C24.2164 77.3611 23.6174 76.0288 24.0721 74.8405C24.5231 73.6522 25.8581 73.0545 27.0488 73.5082C28.2106 73.9511 29.3978 74.34 30.6029 74.6605C31.8332 74.9881 33.0527 75.251 34.2434 75.4383ZM17.3714 67.9307C18.3564 68.7301 18.508 70.1776 17.707 71.1606C16.9059 72.1436 15.4555 72.2949 14.4705 71.4955C13.3808 70.6133 12.338 69.6735 11.3458 68.6869L11.3386 68.6797C10.3536 67.6931 9.4119 66.6525 8.52784 65.565C7.72683 64.582 7.87477 63.1345 8.86339 62.3351C9.84841 61.5358 11.2989 61.6834 12.0999 62.67C12.8829 63.635 13.7163 64.5568 14.5967 65.439C15.4807 66.3176 16.4079 67.153 17.375 67.9343L17.3714 67.9307ZM6.49687 53.0124C6.94789 54.1934 6.35616 55.5222 5.16908 55.9722C3.98566 56.4223 2.65417 55.8318 2.20322 54.6472C1.69448 53.3221 1.25793 51.9862 0.897044 50.6503C0.543448 49.3468 0.254797 47.9678 0.0274788 46.5274C-0.167363 45.2744 0.694988 44.1005 1.94699 43.9097C3.20264 43.7153 4.37886 44.5759 4.57006 45.8253C4.75768 47.0172 5.02108 48.2342 5.34942 49.4621C5.67776 50.7044 6.06383 51.8854 6.49322 53.0088L6.49687 53.0124Z" fill="#E13C6C"/>
</svg>
