<svg width="20" height="15" viewBox="0 0 20 15" fill="none" xmlns="http://www.w3.org/2000/svg">
<g clip-path="url(#clip0_3_416)">
<path d="M0 0H20V5H0V0Z" fill="#FF9933"/>
<path d="M0 5H20V10H0V5Z" fill="white"/>
<path d="M0 10H20V15H0V10Z" fill="#128807"/>
<path d="M10 9.5C11.1046 9.5 12 8.60457 12 7.5C12 6.39543 11.1046 5.5 10 5.5C8.89543 5.5 8 6.39543 8 7.5C8 8.60457 8.89543 9.5 10 9.5Z" fill="#000088"/>
<path d="M10 9.25C10.9665 9.25 11.75 8.4665 11.75 7.5C11.75 6.5335 10.9665 5.75 10 5.75C9.0335 5.75 8.25 6.5335 8.25 7.5C8.25 8.4665 9.0335 9.25 10 9.25Z" fill="white"/>
<path d="M9.99999 7.85039C10.1933 7.85039 10.35 7.69369 10.35 7.50039C10.35 7.30709 10.1933 7.15039 9.99999 7.15039C9.80669 7.15039 9.64999 7.30709 9.64999 7.50039C9.64999 7.69369 9.80669 7.85039 9.99999 7.85039Z" fill="#000088"/>
<path d="M11.7232 7.81716C11.7725 7.82365 11.8177 7.78896 11.8242 7.73968C11.8307 7.6904 11.796 7.64519 11.7467 7.6387C11.6975 7.63221 11.6522 7.6669 11.6458 7.71618C11.6393 7.76546 11.674 7.81067 11.7232 7.81716Z" fill="#000088"/>
<path d="M9.99997 9.24922L10.06 8.19922L9.99997 7.69922L9.93997 8.19922L9.99997 9.24922Z" fill="#000088"/>
<path d="M11.5821 8.25152C11.628 8.27054 11.6807 8.24874 11.6997 8.20281C11.7187 8.15689 11.6969 8.10424 11.651 8.08522C11.6051 8.0662 11.5524 8.08801 11.5334 8.13393C11.5144 8.17985 11.5362 8.2325 11.5821 8.25152Z" fill="#000088"/>
<path d="M9.54704 9.1885L9.87676 8.1898L9.94821 7.69131L9.76085 8.15874L9.54704 9.1885Z" fill="#000088"/>
<path d="M11.3332 8.65658C11.3727 8.68684 11.4292 8.6794 11.4594 8.63997C11.4897 8.60054 11.4822 8.54404 11.4428 8.51378C11.4034 8.48352 11.3469 8.49096 11.3166 8.53039C11.2864 8.56983 11.2938 8.62633 11.3332 8.65658Z" fill="#000088"/>
<path d="M9.12498 9.03446L9.70195 8.15513L9.89998 7.69212L9.59802 8.09513L9.12498 9.03446Z" fill="#000088"/>
<path d="M10.9934 8.94465C11.0237 8.98408 11.0802 8.99152 11.1196 8.96126C11.159 8.93101 11.1665 8.87451 11.1362 8.83507C11.106 8.79564 11.0495 8.7882 11.01 8.81846C10.9706 8.84872 10.9631 8.90522 10.9934 8.94465Z" fill="#000088"/>
<path d="M8.76254 8.73787L9.54743 8.03783L9.85856 7.64185L9.46258 7.95298L8.76254 8.73787Z" fill="#000088"/>
<path d="M10.5861 9.15203C10.6051 9.19795 10.6578 9.21976 10.7037 9.20074C10.7496 9.18172 10.7714 9.12907 10.7524 9.08315C10.7334 9.03723 10.6807 9.01542 10.6348 9.03444C10.5889 9.05346 10.5671 9.10611 10.5861 9.15203Z" fill="#000088"/>
<path d="M8.4846 8.37384L9.42392 7.9008L9.82694 7.59884L9.36392 7.79688L8.4846 8.37384Z" fill="#000088"/>
<path d="M10.1387 9.26506C10.1452 9.31434 10.1904 9.34903 10.2397 9.34254C10.2889 9.33606 10.3236 9.29085 10.3171 9.24157C10.3106 9.19229 10.2654 9.1576 10.2162 9.16408C10.1669 9.17057 10.1322 9.21578 10.1387 9.26506Z" fill="#000088"/>
<path d="M8.30976 7.97084L9.33951 7.75703L9.80694 7.56967L9.30845 7.64112L8.30976 7.97084Z" fill="#000088"/>
<path d="M9.68177 9.22394C9.67528 9.27322 9.70997 9.31843 9.75925 9.32492C9.80853 9.3314 9.85374 9.29671 9.86023 9.24743C9.86672 9.19815 9.83203 9.15294 9.78275 9.14646C9.73347 9.13997 9.68826 9.17466 9.68177 9.22394Z" fill="#000088"/>
<path d="M8.25008 7.50141L9.30008 7.56141L9.80008 7.50141L9.30008 7.44141L8.25008 7.50141Z" fill="#000088"/>
<path d="M9.24662 9.06504C9.2276 9.11096 9.2494 9.16361 9.29533 9.18263C9.34125 9.20165 9.39389 9.17984 9.41292 9.13392C9.43194 9.088 9.41013 9.03535 9.36421 9.01633C9.31829 8.99731 9.26564 9.01912 9.24662 9.06504Z" fill="#000088"/>
<path d="M8.3097 7.02983L9.3084 7.35954L9.80689 7.43099L9.33946 7.24363L8.3097 7.02983Z" fill="#000088"/>
<path d="M8.86268 8.84659C8.83242 8.88602 8.83986 8.94252 8.87929 8.97278C8.91873 9.00304 8.97522 8.9956 9.00548 8.95617C9.03574 8.91673 9.0283 8.86024 8.98887 8.82998C8.94944 8.79972 8.89294 8.80716 8.86268 8.84659Z" fill="#000088"/>
<path d="M8.48441 6.63829L9.36374 7.21525L9.82675 7.41329L9.42374 7.11133L8.48441 6.63829Z" fill="#000088"/>
<path d="M8.55639 8.49011C8.51695 8.52037 8.50951 8.57687 8.53977 8.6163C8.57003 8.65573 8.62653 8.66317 8.66596 8.63291C8.7054 8.60265 8.71284 8.54616 8.68258 8.50672C8.65232 8.46729 8.59582 8.45985 8.55639 8.49011Z" fill="#000088"/>
<path d="M8.76253 6.25891L9.46256 7.0438L9.85854 7.35493L9.54742 6.95895L8.76253 6.25891Z" fill="#000088"/>
<path d="M8.34843 8.09861C8.3025 8.11763 8.2807 8.17028 8.29972 8.2162C8.31874 8.26212 8.37139 8.28393 8.41731 8.26491C8.46323 8.24589 8.48504 8.19324 8.46602 8.14732C8.44699 8.1014 8.39435 8.07959 8.34843 8.09861Z" fill="#000088"/>
<path d="M9.12497 5.99625L9.59801 6.93558L9.89997 7.33859L9.70193 6.87558L9.12497 5.99625Z" fill="#000088"/>
<path d="M8.25306 7.64969C8.20378 7.65618 8.16909 7.70139 8.17558 7.75067C8.18206 7.79995 8.22727 7.83464 8.27655 7.82815C8.32583 7.82167 8.36052 7.77646 8.35404 7.72718C8.34755 7.6779 8.30234 7.64321 8.25306 7.64969Z" fill="#000088"/>
<path d="M9.54704 5.82108L9.76084 6.85083L9.94821 7.31826L9.87676 6.81977L9.54704 5.82108Z" fill="#000088"/>
<path d="M8.27673 7.17698C8.22745 7.17049 8.18224 7.20518 8.17576 7.25446C8.16927 7.30374 8.20396 7.34895 8.25324 7.35544C8.30252 7.36193 8.34773 7.32724 8.35422 7.27796C8.3607 7.22868 8.32601 7.18347 8.27673 7.17698Z" fill="#000088"/>
<path d="M10 5.74492L9.94 6.79492L10 7.29492L10.06 6.79492L10 5.74492Z" fill="#000088"/>
<path d="M8.41786 6.74262C8.37194 6.7236 8.31929 6.74541 8.30027 6.79133C8.28125 6.83725 8.30306 6.8899 8.34898 6.90892C8.3949 6.92794 8.44755 6.90613 8.46657 6.86021C8.48559 6.81429 8.46378 6.76164 8.41786 6.74262Z" fill="#000088"/>
<path d="M10.4529 5.80565L10.1232 6.80434L10.0518 7.30283L10.2391 6.8354L10.4529 5.80565Z" fill="#000088"/>
<path d="M8.66675 6.33756C8.62731 6.3073 8.57081 6.31474 8.54056 6.35417C8.5103 6.3936 8.51773 6.4501 8.55717 6.48036C8.5966 6.51062 8.6531 6.50318 8.68336 6.46375C8.71362 6.42431 8.70618 6.36782 8.66675 6.33756Z" fill="#000088"/>
<path d="M10.875 5.95968L10.298 6.83901L10.1 7.30202L10.4019 6.89901L10.875 5.95968Z" fill="#000088"/>
<path d="M9.00656 6.04949C8.9763 6.01006 8.91981 6.00262 8.88037 6.03288C8.84094 6.06314 8.8335 6.11963 8.86376 6.15907C8.89402 6.1985 8.95052 6.20594 8.98995 6.17568C9.02938 6.14542 9.03682 6.08892 9.00656 6.04949Z" fill="#000088"/>
<path d="M11.2374 6.25627L10.4525 6.95631L10.1414 7.35229L10.5374 7.04116L11.2374 6.25627Z" fill="#000088"/>
<path d="M9.41411 5.84407C9.39509 5.79815 9.34245 5.77634 9.29652 5.79536C9.2506 5.81438 9.22879 5.86703 9.24782 5.91295C9.26684 5.95887 9.31948 5.98068 9.36541 5.96166C9.41133 5.94264 9.43314 5.88999 9.41411 5.84407Z" fill="#000088"/>
<path d="M11.5156 6.62226L10.5763 7.0953L10.1733 7.39726L10.6363 7.19923L11.5156 6.62226Z" fill="#000088"/>
<path d="M9.86145 5.73103C9.85496 5.68175 9.80975 5.64706 9.76047 5.65355C9.71119 5.66004 9.6765 5.70525 9.68299 5.75453C9.68947 5.80381 9.73468 5.8385 9.78396 5.83201C9.83324 5.82552 9.86793 5.78031 9.86145 5.73103Z" fill="#000088"/>
<path d="M11.6904 7.02526L10.6606 7.23906L10.1932 7.42643L10.6917 7.35497L11.6904 7.02526Z" fill="#000088"/>
<path d="M10.3184 5.77216C10.3248 5.72287 10.2901 5.67767 10.2409 5.67118C10.1916 5.66469 10.1464 5.69938 10.1399 5.74866C10.1334 5.79794 10.1681 5.84315 10.2174 5.84964C10.2667 5.85613 10.3119 5.82144 10.3184 5.77216Z" fill="#000088"/>
<path d="M11.75 7.49469L10.7 7.43469L10.2 7.49469L10.7 7.55469L11.75 7.49469Z" fill="#000088"/>
<path d="M10.7535 5.93105C10.7725 5.88513 10.7507 5.83248 10.7048 5.81346C10.6589 5.79444 10.6062 5.81625 10.5872 5.86217C10.5682 5.90809 10.59 5.96074 10.6359 5.97976C10.6818 5.99878 10.7345 5.97698 10.7535 5.93105Z" fill="#000088"/>
<path d="M11.6904 7.96627L10.6917 7.63655L10.1932 7.5651L10.6607 7.75246L11.6904 7.96627Z" fill="#000088"/>
<path d="M11.1373 6.14365C11.1675 6.10422 11.1601 6.04772 11.1206 6.01746C11.0812 5.9872 11.0247 5.99464 10.9945 6.03407C10.9642 6.07351 10.9716 6.13001 11.0111 6.16026C11.0505 6.19052 11.107 6.18309 11.1373 6.14365Z" fill="#000088"/>
<path d="M11.5155 8.35195L10.6362 7.77499L10.1732 7.57695L10.5762 7.87891L11.5155 8.35195Z" fill="#000088"/>
<path d="M11.4436 6.50013C11.483 6.46987 11.4904 6.41338 11.4602 6.37394C11.4299 6.33451 11.3734 6.32707 11.334 6.35733C11.2945 6.38759 11.2871 6.44408 11.3174 6.48352C11.3476 6.52295 11.4041 6.53039 11.4436 6.50013Z" fill="#000088"/>
<path d="M11.2374 8.73133L10.5374 7.94644L10.1414 7.63532L10.4525 8.0313L11.2374 8.73133Z" fill="#000088"/>
<path d="M11.6515 6.89163C11.6974 6.87261 11.7192 6.81996 11.7002 6.77404C11.6812 6.72812 11.6286 6.70631 11.5826 6.72533C11.5367 6.74435 11.5149 6.797 11.5339 6.84292C11.5529 6.88884 11.6056 6.91065 11.6515 6.89163Z" fill="#000088"/>
<path d="M10.875 8.99399L10.4019 8.05466L10.1 7.65165L10.298 8.11466L10.875 8.99399Z" fill="#000088"/>
<path d="M11.7469 7.34055C11.7962 7.33406 11.8309 7.28885 11.8244 7.23957C11.8179 7.19029 11.7727 7.1556 11.7234 7.16209C11.6741 7.16858 11.6394 7.21379 11.6459 7.26307C11.6524 7.31235 11.6976 7.34704 11.7469 7.34055Z" fill="#000088"/>
<path d="M10.4529 9.16916L10.2391 8.13941L10.0517 7.67198L10.1232 8.17047L10.4529 9.16916Z" fill="#000088"/>
</g>
<defs>
<clipPath id="clip0_3_416">
<rect width="20" height="15" fill="white"/>
</clipPath>
</defs>
</svg>
