<svg width="440" height="50" viewBox="0 0 440 50" fill="none" xmlns="http://www.w3.org/2000/svg">
<path d="M220.59 10.2987C220.305 9.96941 219.808 9.93655 219.482 10.2246C219.439 10.2623 215.082 14.071 206.651 18.3824C189.179 27.3393 131.5 36.3983 78.7563 22.5693C70.5753 20.4301 62.9018 18.8886 55.9506 17.9888C36.859 15.5175 22.206 17.6183 12.3971 24.2318C12.3957 24.2332 12.3936 24.2332 12.3922 24.2339C2.62975 30.8278 0.503388 40.1308 0.0423388 43.8248C-0.115735 45.0972 0.1706 46.3933 0.871534 47.5126C1.8484 49.0702 3.50472 50 5.30177 49.9993C7.09882 49.9993 8.75513 49.0695 9.7313 47.5126C10.3567 46.515 10.6527 45.3202 10.564 44.1478C10.3033 40.6921 9.74102 29.173 13.3379 25.5049C22.8216 19.1451 37.0899 17.1443 55.7503 19.559C62.6369 20.451 70.2446 21.9786 78.3611 24.1018C98.0337 29.2604 118.4 31.2487 137.15 31.2487C169.035 31.2487 196.239 25.4958 207.361 19.7946C215.986 15.384 220.335 11.5753 220.516 11.4152C220.843 11.1271 220.875 10.6273 220.59 10.2987Z" fill="white"/>
<path d="M220.59 10.2987C220.305 9.96944 219.808 9.93728 219.482 10.2246C219.449 10.254 216.071 13.2049 209.536 16.5466C195.965 23.5034 151.154 30.5377 110.168 19.7904C103.799 18.1252 97.823 16.9241 92.4054 16.2229C77.5104 14.2941 66.0715 15.9384 58.4049 21.1082C58.4036 21.1089 58.4015 21.1096 58.4015 21.1096C50.7474 26.2788 49.08 33.576 48.7188 36.4731C48.5905 37.5029 48.8221 38.5529 49.3899 39.4583C50.1816 40.7208 51.5253 41.4752 52.9833 41.4752C54.4413 41.4752 55.7849 40.7208 56.5774 39.459C57.0835 38.6515 57.3227 37.6839 57.2513 36.7339C57.0502 34.0675 56.6148 25.191 59.3492 22.3799C66.6907 17.4652 77.7434 15.9209 92.2065 17.7931C97.5588 18.4866 103.469 19.6744 109.774 21.3229C125.089 25.3385 140.94 26.8863 155.54 26.8863C180.38 26.8863 201.581 22.4016 210.248 17.9588C216.976 14.5178 220.376 11.541 220.518 11.4159C220.843 11.1271 220.875 10.628 220.59 10.2987Z" fill="white"/>
<path d="M223.201 2.14659C222.648 0.891703 221.535 0.130383 220.068 0.00314596C220.023 -0.00104865 219.979 -0.00104865 219.934 0.00314596C218.465 0.130383 217.351 0.891705 216.798 2.14799C215.801 4.41168 216.765 7.83239 219.376 11.2985C219.525 11.4957 219.756 11.611 220.001 11.611C220.246 11.611 220.478 11.495 220.626 11.2978C223.235 7.83099 224.198 4.40958 223.201 2.14659Z" fill="white"/>
<path d="M439.957 43.8255C439.497 40.1322 437.371 30.8299 427.607 24.2346C427.606 24.2332 427.604 24.2332 427.603 24.2325C417.794 17.6176 403.14 15.5154 384.049 17.9895C377.097 18.8893 369.424 20.4301 361.243 22.57C308.502 36.4004 250.821 27.34 233.348 18.3824C224.918 14.071 220.561 10.2623 220.518 10.2246C220.191 9.93655 219.695 9.96941 219.411 10.2987C219.125 10.6273 219.158 11.1271 219.483 11.4152C219.664 11.5746 224.013 15.384 232.638 19.7939C243.761 25.4965 270.961 31.2494 302.85 31.2487C321.598 31.248 341.969 29.2597 361.639 24.1018C369.756 21.9793 377.363 20.451 384.251 19.559C402.912 17.1436 417.179 19.1444 426.662 25.5049C430.261 29.1744 429.697 40.6921 429.436 44.1485C429.348 45.3216 429.644 46.5164 430.269 47.5133C431.245 49.0709 432.902 50 434.699 50H434.699C436.496 50 438.153 49.0702 439.152 47.4762C439.829 46.3954 440.116 45.0986 439.957 43.8255Z" fill="white"/>
<path d="M391.281 36.4738C390.919 33.5767 389.252 26.2794 381.598 21.1103C381.597 21.1096 381.594 21.1089 381.594 21.1089C373.928 15.939 362.489 14.2961 347.594 16.2236C342.177 16.9255 336.201 18.1251 329.831 19.7911C288.845 30.5384 244.034 23.5047 230.462 16.5466C223.928 13.2048 220.551 10.2546 220.517 10.2246C220.191 9.93794 219.695 9.9701 219.41 10.2987C219.124 10.628 219.157 11.1271 219.483 11.4151C219.624 11.5403 223.023 14.5171 229.752 17.9573C238.42 22.4008 259.615 26.8863 284.46 26.8856C299.056 26.8849 314.916 25.3364 330.225 21.3221C336.532 19.6729 342.442 18.4852 347.794 17.7924C362.257 15.9195 373.309 17.4645 380.651 22.3792C383.386 25.1916 382.95 34.0667 382.749 36.7331C382.677 37.6832 382.917 38.6508 383.423 39.4582C384.215 40.7208 385.559 41.4751 387.017 41.4751C388.475 41.4744 389.818 40.7208 390.628 39.4296C391.177 38.5536 391.409 37.5035 391.281 36.4738Z" fill="white"/>
</svg>
